<?xml version="1.0" encoding="UTF-8" standalone="no"?>
<!DOCTYPE svg PUBLIC "-//W3C//DTD SVG 1.1//EN"
 "http://www.w3.org/Graphics/SVG/1.1/DTD/svg11.dtd">
<!-- Generated by graphviz version 2.38.0 (20140413.2041)
 -->
<!-- Title: NetworkService::NetworkDescriptor Pages: 1 -->
<svg width="182pt" height="801pt"
 viewBox="0.00 0.00 182.00 801.00" xmlns="http://www.w3.org/2000/svg" xmlns:xlink="http://www.w3.org/1999/xlink">
<g id="graph0" class="graph" transform="scale(1 1) rotate(0) translate(4 797)">
<title>NetworkService::NetworkDescriptor</title>
<polygon fill="white" stroke="none" points="-4,4 -4,-797 178,-797 178,4 -4,4"/>
<!-- Node1 -->
<g id="node1" class="node"><title>Node1</title>
<polygon fill="#bfbfbf" stroke="black" points="0,-0.5 0,-145.5 174,-145.5 174,-0.5 0,-0.5"/>
<text text-anchor="middle" x="87" y="-133.5" font-family="Helvetica,sans-Serif" font-size="10.00">NetworkService::NetworkDescriptor</text>
<polyline fill="none" stroke="black" points="0,-126.5 174,-126.5 "/>
<text text-anchor="start" x="8" y="-114.5" font-family="Helvetica,sans-Serif" font-size="10.00">&#45; intraffic</text>
<text text-anchor="start" x="8" y="-103.5" font-family="Helvetica,sans-Serif" font-size="10.00">&#45; outtraffic</text>
<text text-anchor="start" x="8" y="-92.5" font-family="Helvetica,sans-Serif" font-size="10.00">&#45; linkduration</text>
<polyline fill="none" stroke="black" points="0,-85.5 174,-85.5 "/>
<text text-anchor="start" x="8" y="-73.5" font-family="Helvetica,sans-Serif" font-size="10.00">+ NetworkDescriptor()</text>
<text text-anchor="start" x="8" y="-62.5" font-family="Helvetica,sans-Serif" font-size="10.00">+ NetworkDescriptor()</text>
<text text-anchor="start" x="8" y="-51.5" font-family="Helvetica,sans-Serif" font-size="10.00">+ getInTraffic()</text>
<text text-anchor="start" x="8" y="-40.5" font-family="Helvetica,sans-Serif" font-size="10.00">+ getOutTraffic()</text>
<text text-anchor="start" x="8" y="-29.5" font-family="Helvetica,sans-Serif" font-size="10.00">+ getType()</text>
<text text-anchor="start" x="8" y="-18.5" font-family="Helvetica,sans-Serif" font-size="10.00">+ getLinkDuration()</text>
<text text-anchor="start" x="8" y="-7.5" font-family="Helvetica,sans-Serif" font-size="10.00">+ calculatePrice()</text>
</g>
<!-- Node2 -->
<g id="node2" class="node"><title>Node2</title>
<g id="a_node2"><a xlink:href="class_network_service_1_1_service_descriptor.html" target="_top" xlink:title="Описатель сервиса, абстрактный класс ">
<polygon fill="white" stroke="black" points="2,-183.5 2,-350.5 172,-350.5 172,-183.5 2,-183.5"/>
<text text-anchor="middle" x="87" y="-338.5" font-family="Helvetica,sans-Serif" font-size="10.00">NetworkService::ServiceDescriptor</text>
<polyline fill="none" stroke="black" points="2,-331.5 172,-331.5 "/>
<text text-anchor="start" x="10" y="-319.5" font-family="Helvetica,sans-Serif" font-size="10.00">&#45; addr</text>
<text text-anchor="start" x="10" y="-308.5" font-family="Helvetica,sans-Serif" font-size="10.00">&#45; linktime</text>
<polyline fill="none" stroke="black" points="2,-301.5 172,-301.5 "/>
<text text-anchor="start" x="10" y="-289.5" font-family="Helvetica,sans-Serif" font-size="10.00">+ ServiceDescriptor()</text>
<text text-anchor="start" x="10" y="-278.5" font-family="Helvetica,sans-Serif" font-size="10.00">+ getType()</text>
<text text-anchor="start" x="10" y="-267.5" font-family="Helvetica,sans-Serif" font-size="10.00">+ calculatePrice()</text>
<text text-anchor="start" x="10" y="-256.5" font-family="Helvetica,sans-Serif" font-size="10.00">+ getDestinationAddress()</text>
<text text-anchor="start" x="10" y="-245.5" font-family="Helvetica,sans-Serif" font-size="10.00">+ getLinkTime()</text>
<text text-anchor="start" x="10" y="-234.5" font-family="Helvetica,sans-Serif" font-size="10.00">+ getServer()</text>
<text text-anchor="start" x="10" y="-223.5" font-family="Helvetica,sans-Serif" font-size="10.00">+ ~ServiceDescriptor()</text>
<text text-anchor="start" x="10" y="-212.5" font-family="Helvetica,sans-Serif" font-size="10.00"># setDestinationAddress()</text>
<text text-anchor="start" x="10" y="-201.5" font-family="Helvetica,sans-Serif" font-size="10.00"># setLinkTime()</text>
<text text-anchor="start" x="10" y="-190.5" font-family="Helvetica,sans-Serif" font-size="10.00"># setServer()</text>
</a>
</g>
</g>
<!-- Node2&#45;&gt;Node1 -->
<g id="edge1" class="edge"><title>Node2&#45;&gt;Node1</title>
<path fill="none" stroke="midnightblue" d="M87,-173.367C87,-164.035 87,-154.66 87,-145.596"/>
<polygon fill="none" stroke="midnightblue" points="83.5001,-173.46 87,-183.46 90.5001,-173.46 83.5001,-173.46"/>
</g>
<!-- Node3 -->
<g id="node3" class="node"><title>Node3</title>
<g id="a_node3"><a xlink:href="class_network_service_1_1_server.html" target="_top" xlink:title="Описатель сервера ">
<polygon fill="white" stroke="black" points="26.5,-398.5 26.5,-576.5 147.5,-576.5 147.5,-398.5 26.5,-398.5"/>
<text text-anchor="middle" x="87" y="-564.5" font-family="Helvetica,sans-Serif" font-size="10.00">NetworkService::Server</text>
<polyline fill="none" stroke="black" points="26.5,-557.5 147.5,-557.5 "/>
<text text-anchor="start" x="34.5" y="-545.5" font-family="Helvetica,sans-Serif" font-size="10.00">&#45; address</text>
<text text-anchor="start" x="34.5" y="-534.5" font-family="Helvetica,sans-Serif" font-size="10.00">&#45; name</text>
<text text-anchor="start" x="34.5" y="-523.5" font-family="Helvetica,sans-Serif" font-size="10.00">&#45; costpermin</text>
<text text-anchor="start" x="34.5" y="-512.5" font-family="Helvetica,sans-Serif" font-size="10.00">&#45; costpermb</text>
<polyline fill="none" stroke="black" points="26.5,-505.5 147.5,-505.5 "/>
<text text-anchor="start" x="34.5" y="-493.5" font-family="Helvetica,sans-Serif" font-size="10.00">+ Server()</text>
<text text-anchor="start" x="34.5" y="-482.5" font-family="Helvetica,sans-Serif" font-size="10.00">+ getAddress()</text>
<text text-anchor="start" x="34.5" y="-471.5" font-family="Helvetica,sans-Serif" font-size="10.00">+ getName()</text>
<text text-anchor="start" x="34.5" y="-460.5" font-family="Helvetica,sans-Serif" font-size="10.00">+ setName()</text>
<text text-anchor="start" x="34.5" y="-449.5" font-family="Helvetica,sans-Serif" font-size="10.00">+ getCostPerMin()</text>
<text text-anchor="start" x="34.5" y="-438.5" font-family="Helvetica,sans-Serif" font-size="10.00">+ getCostPerMB()</text>
<text text-anchor="start" x="34.5" y="-427.5" font-family="Helvetica,sans-Serif" font-size="10.00">+ setCostPerMin()</text>
<text text-anchor="start" x="34.5" y="-416.5" font-family="Helvetica,sans-Serif" font-size="10.00">+ setCostPerMB()</text>
<text text-anchor="start" x="34.5" y="-405.5" font-family="Helvetica,sans-Serif" font-size="10.00">+ ~Server()</text>
</a>
</g>
</g>
<!-- Node3&#45;&gt;Node2 -->
<g id="edge2" class="edge"><title>Node3&#45;&gt;Node2</title>
<path fill="none" stroke="#404040" d="M87,-398.258C87,-386.566 87,-374.541 87,-362.746"/>
<polygon fill="none" stroke="#404040" points="87.0001,-362.56 83,-356.561 87,-350.56 91,-356.56 87.0001,-362.56"/>
<text text-anchor="middle" x="104" y="-372" font-family="Helvetica,sans-Serif" font-size="10.00"> &#45;server</text>
</g>
<!-- Node4 -->
<g id="node4" class="node"><title>Node4</title>
<g id="a_node4"><a xlink:href="class_network_service_1_1_link_table.html" target="_top" xlink:title="Класс, реализующий &quot;таблицу связи&quot;. ">
<polygon fill="white" stroke="black" points="20,-614.5 20,-792.5 154,-792.5 154,-614.5 20,-614.5"/>
<text text-anchor="middle" x="87" y="-780.5" font-family="Helvetica,sans-Serif" font-size="10.00">NetworkService::LinkTable</text>
<polyline fill="none" stroke="black" points="20,-773.5 154,-773.5 "/>
<text text-anchor="start" x="28" y="-761.5" font-family="Helvetica,sans-Serif" font-size="10.00">&#45; linktable</text>
<polyline fill="none" stroke="black" points="20,-754.5 154,-754.5 "/>
<text text-anchor="start" x="28" y="-742.5" font-family="Helvetica,sans-Serif" font-size="10.00">+ LinkTable()</text>
<text text-anchor="start" x="28" y="-731.5" font-family="Helvetica,sans-Serif" font-size="10.00">+ addService()</text>
<text text-anchor="start" x="28" y="-720.5" font-family="Helvetica,sans-Serif" font-size="10.00">+ getServices()</text>
<text text-anchor="start" x="28" y="-709.5" font-family="Helvetica,sans-Serif" font-size="10.00">+ getServices()</text>
<text text-anchor="start" x="28" y="-698.5" font-family="Helvetica,sans-Serif" font-size="10.00">+ delService()</text>
<text text-anchor="start" x="28" y="-687.5" font-family="Helvetica,sans-Serif" font-size="10.00">+ showTable()</text>
<text text-anchor="start" x="28" y="-676.5" font-family="Helvetica,sans-Serif" font-size="10.00">+ operator[]()</text>
<text text-anchor="start" x="28" y="-665.5" font-family="Helvetica,sans-Serif" font-size="10.00">+ begin()</text>
<text text-anchor="start" x="28" y="-654.5" font-family="Helvetica,sans-Serif" font-size="10.00">+ begin()</text>
<text text-anchor="start" x="28" y="-643.5" font-family="Helvetica,sans-Serif" font-size="10.00">+ end()</text>
<text text-anchor="start" x="28" y="-632.5" font-family="Helvetica,sans-Serif" font-size="10.00">+ end()</text>
<text text-anchor="start" x="28" y="-621.5" font-family="Helvetica,sans-Serif" font-size="10.00">+ ~LinkTable()</text>
</a>
</g>
</g>
<!-- Node4&#45;&gt;Node3 -->
<g id="edge3" class="edge"><title>Node4&#45;&gt;Node3</title>
<path fill="none" stroke="midnightblue" d="M87,-603.959C87,-594.824 87,-585.606 87,-576.575"/>
<polygon fill="none" stroke="midnightblue" points="83.5001,-604.222 87,-614.222 90.5001,-604.223 83.5001,-604.222"/>
</g>
</g>
</svg>
