<?xml version="1.0" encoding="UTF-8" standalone="no"?>
<!DOCTYPE svg PUBLIC "-//W3C//DTD SVG 1.1//EN"
 "http://www.w3.org/Graphics/SVG/1.1/DTD/svg11.dtd">
<!-- Generated by graphviz version 2.38.0 (20140413.2041)
 -->
<!-- Title: NetworkService::MyConstIterator&lt; T &gt; Pages: 1 -->
<svg width="195pt" height="281pt"
 viewBox="0.00 0.00 195.00 281.00" xmlns="http://www.w3.org/2000/svg" xmlns:xlink="http://www.w3.org/1999/xlink">
<g id="graph0" class="graph" transform="scale(1 1) rotate(0) translate(4 277)">
<title>NetworkService::MyConstIterator&lt; T &gt;</title>
<polygon fill="white" stroke="none" points="-4,4 -4,-277 191,-277 191,4 -4,4"/>
<!-- Node1 -->
<g id="node1" class="node"><title>Node1</title>
<polygon fill="#bfbfbf" stroke="black" points="-1.42109e-14,-0.5 -1.42109e-14,-167.5 187,-167.5 187,-0.5 -1.42109e-14,-0.5"/>
<text text-anchor="middle" x="93.5" y="-155.5" font-family="Helvetica,sans-Serif" font-size="10.00">NetworkService::MyConstIterator&lt; T &gt;</text>
<polyline fill="none" stroke="black" points="-1.42109e-14,-148.5 187,-148.5 "/>
<text text-anchor="start" x="8" y="-136.5" font-family="Helvetica,sans-Serif" font-size="10.00">&#45; memb</text>
<text text-anchor="start" x="8" y="-125.5" font-family="Helvetica,sans-Serif" font-size="10.00">&#45; index</text>
<polyline fill="none" stroke="black" points="-1.42109e-14,-118.5 187,-118.5 "/>
<text text-anchor="start" x="8" y="-106.5" font-family="Helvetica,sans-Serif" font-size="10.00">+ MyConstIterator()</text>
<text text-anchor="start" x="8" y="-95.5" font-family="Helvetica,sans-Serif" font-size="10.00">+ MyConstIterator()</text>
<text text-anchor="start" x="8" y="-84.5" font-family="Helvetica,sans-Serif" font-size="10.00">+ operator++()</text>
<text text-anchor="start" x="8" y="-73.5" font-family="Helvetica,sans-Serif" font-size="10.00">+ operator++()</text>
<text text-anchor="start" x="8" y="-62.5" font-family="Helvetica,sans-Serif" font-size="10.00">+ operator+()</text>
<text text-anchor="start" x="8" y="-51.5" font-family="Helvetica,sans-Serif" font-size="10.00">+ operator=()</text>
<text text-anchor="start" x="8" y="-40.5" font-family="Helvetica,sans-Serif" font-size="10.00">+ operator*()</text>
<text text-anchor="start" x="8" y="-29.5" font-family="Helvetica,sans-Serif" font-size="10.00">+ operator&#45;&gt;()</text>
<text text-anchor="start" x="8" y="-18.5" font-family="Helvetica,sans-Serif" font-size="10.00">+ ~MyConstIterator()</text>
<text text-anchor="start" x="8" y="-7.5" font-family="Helvetica,sans-Serif" font-size="10.00">&#45; MyConstIterator()</text>
</g>
<!-- Node2 -->
<g id="node2" class="node"><title>Node2</title>
<polygon fill="white" stroke="#bfbfbf" points="28.5,-204.5 28.5,-272.5 158.5,-272.5 158.5,-204.5 28.5,-204.5"/>
<text text-anchor="start" x="36.5" y="-260.5" font-family="Helvetica,sans-Serif" font-size="10.00">std::iterator&lt; std</text>
<text text-anchor="middle" x="93.5" y="-249.5" font-family="Helvetica,sans-Serif" font-size="10.00">::forward_iterator_tag, T &gt;</text>
<polyline fill="none" stroke="#bfbfbf" points="28.5,-242.5 158.5,-242.5 "/>
<text text-anchor="middle" x="93.5" y="-230.5" font-family="Helvetica,sans-Serif" font-size="10.00"> </text>
<polyline fill="none" stroke="#bfbfbf" points="28.5,-223.5 158.5,-223.5 "/>
<text text-anchor="middle" x="93.5" y="-211.5" font-family="Helvetica,sans-Serif" font-size="10.00"> </text>
</g>
<!-- Node2&#45;&gt;Node1 -->
<g id="edge1" class="edge"><title>Node2&#45;&gt;Node1</title>
<path fill="none" stroke="midnightblue" d="M93.5,-194.229C93.5,-185.884 93.5,-176.887 93.5,-167.765"/>
<polygon fill="none" stroke="midnightblue" points="90.0001,-194.41 93.5,-204.41 97.0001,-194.41 90.0001,-194.41"/>
</g>
</g>
</svg>
