<?xml version="1.0" encoding="UTF-8" standalone="no"?>
<!DOCTYPE svg PUBLIC "-//W3C//DTD SVG 1.1//EN"
 "http://www.w3.org/Graphics/SVG/1.1/DTD/svg11.dtd">
<!-- Generated by graphviz version 2.38.0 (20140413.2041)
 -->
<!-- Title: NetworkService::PostDescriptor Pages: 1 -->
<svg width="178pt" height="540pt"
 viewBox="0.00 0.00 178.00 540.00" xmlns="http://www.w3.org/2000/svg" xmlns:xlink="http://www.w3.org/1999/xlink">
<g id="graph0" class="graph" transform="scale(1 1) rotate(0) translate(4 536)">
<title>NetworkService::PostDescriptor</title>
<polygon fill="white" stroke="none" points="-4,4 -4,-536 174,-536 174,4 -4,4"/>
<!-- Node1 -->
<g id="node1" class="node"><title>Node1</title>
<polygon fill="#bfbfbf" stroke="black" points="6,-149.5 6,-316.5 164,-316.5 164,-149.5 6,-149.5"/>
<text text-anchor="middle" x="85" y="-304.5" font-family="Helvetica,sans-Serif" font-size="10.00">NetworkService::PostDescriptor</text>
<polyline fill="none" stroke="black" points="6,-297.5 164,-297.5 "/>
<text text-anchor="start" x="14" y="-285.5" font-family="Helvetica,sans-Serif" font-size="10.00">&#45; traffic</text>
<text text-anchor="start" x="14" y="-274.5" font-family="Helvetica,sans-Serif" font-size="10.00">&#45; direction</text>
<polyline fill="none" stroke="black" points="6,-267.5 164,-267.5 "/>
<text text-anchor="start" x="14" y="-255.5" font-family="Helvetica,sans-Serif" font-size="10.00">+ PostDescriptor()</text>
<text text-anchor="start" x="14" y="-244.5" font-family="Helvetica,sans-Serif" font-size="10.00">+ PostDescriptor()</text>
<text text-anchor="start" x="14" y="-233.5" font-family="Helvetica,sans-Serif" font-size="10.00">+ getDirection()</text>
<text text-anchor="start" x="14" y="-222.5" font-family="Helvetica,sans-Serif" font-size="10.00">+ getTraffic()</text>
<text text-anchor="start" x="14" y="-211.5" font-family="Helvetica,sans-Serif" font-size="10.00">+ getType()</text>
<text text-anchor="start" x="14" y="-200.5" font-family="Helvetica,sans-Serif" font-size="10.00">+ getLinkTime()</text>
<text text-anchor="start" x="14" y="-189.5" font-family="Helvetica,sans-Serif" font-size="10.00">+ calculatePrice()</text>
<text text-anchor="start" x="14" y="-178.5" font-family="Helvetica,sans-Serif" font-size="10.00">+ ~PostDescriptor()</text>
<text text-anchor="start" x="14" y="-167.5" font-family="Helvetica,sans-Serif" font-size="10.00"># setTraffic()</text>
<text text-anchor="start" x="14" y="-156.5" font-family="Helvetica,sans-Serif" font-size="10.00"># setDirection()</text>
</g>
<!-- Node3 -->
<g id="node3" class="node"><title>Node3</title>
<g id="a_node3"><a xlink:href="class_network_service_1_1_file_descriptor.html" target="_top" xlink:title="Класс, описывающий сервис &quot;файл&quot;. ">
<polygon fill="white" stroke="black" points="8.5,-0.5 8.5,-112.5 161.5,-112.5 161.5,-0.5 8.5,-0.5"/>
<text text-anchor="middle" x="85" y="-100.5" font-family="Helvetica,sans-Serif" font-size="10.00">NetworkService::FileDescriptor</text>
<polyline fill="none" stroke="black" points="8.5,-93.5 161.5,-93.5 "/>
<text text-anchor="start" x="16.5" y="-81.5" font-family="Helvetica,sans-Serif" font-size="10.00">&#45; linkduration</text>
<polyline fill="none" stroke="black" points="8.5,-74.5 161.5,-74.5 "/>
<text text-anchor="start" x="16.5" y="-62.5" font-family="Helvetica,sans-Serif" font-size="10.00">+ FileDescriptor()</text>
<text text-anchor="start" x="16.5" y="-51.5" font-family="Helvetica,sans-Serif" font-size="10.00">+ getLinkDuration()</text>
<text text-anchor="start" x="16.5" y="-40.5" font-family="Helvetica,sans-Serif" font-size="10.00">+ getType()</text>
<text text-anchor="start" x="16.5" y="-29.5" font-family="Helvetica,sans-Serif" font-size="10.00">+ calculatePrice()</text>
<text text-anchor="start" x="16.5" y="-18.5" font-family="Helvetica,sans-Serif" font-size="10.00">+ ~FileDescriptor()</text>
<text text-anchor="start" x="16.5" y="-7.5" font-family="Helvetica,sans-Serif" font-size="10.00">&#45; FileDescriptor()</text>
</a>
</g>
</g>
<!-- Node1&#45;&gt;Node3 -->
<g id="edge2" class="edge"><title>Node1&#45;&gt;Node3</title>
<path fill="none" stroke="midnightblue" d="M85,-139.225C85,-130.269 85,-121.392 85,-112.971"/>
<polygon fill="none" stroke="midnightblue" points="81.5001,-139.349 85,-149.349 88.5001,-139.349 81.5001,-139.349"/>
</g>
<!-- Node2 -->
<g id="node2" class="node"><title>Node2</title>
<g id="a_node2"><a xlink:href="class_network_service_1_1_service_descriptor.html" target="_top" xlink:title="Описатель сервиса, абстрактный класс ">
<polygon fill="white" stroke="black" points="0,-353.5 0,-531.5 170,-531.5 170,-353.5 0,-353.5"/>
<text text-anchor="middle" x="85" y="-519.5" font-family="Helvetica,sans-Serif" font-size="10.00">NetworkService::ServiceDescriptor</text>
<polyline fill="none" stroke="black" points="0,-512.5 170,-512.5 "/>
<text text-anchor="start" x="8" y="-500.5" font-family="Helvetica,sans-Serif" font-size="10.00">&#45; addr</text>
<text text-anchor="start" x="8" y="-489.5" font-family="Helvetica,sans-Serif" font-size="10.00">&#45; linktime</text>
<text text-anchor="start" x="8" y="-478.5" font-family="Helvetica,sans-Serif" font-size="10.00">&#45; server</text>
<polyline fill="none" stroke="black" points="0,-471.5 170,-471.5 "/>
<text text-anchor="start" x="8" y="-459.5" font-family="Helvetica,sans-Serif" font-size="10.00">+ ServiceDescriptor()</text>
<text text-anchor="start" x="8" y="-448.5" font-family="Helvetica,sans-Serif" font-size="10.00">+ getType()</text>
<text text-anchor="start" x="8" y="-437.5" font-family="Helvetica,sans-Serif" font-size="10.00">+ calculatePrice()</text>
<text text-anchor="start" x="8" y="-426.5" font-family="Helvetica,sans-Serif" font-size="10.00">+ getDestinationAddress()</text>
<text text-anchor="start" x="8" y="-415.5" font-family="Helvetica,sans-Serif" font-size="10.00">+ getLinkTime()</text>
<text text-anchor="start" x="8" y="-404.5" font-family="Helvetica,sans-Serif" font-size="10.00">+ getServer()</text>
<text text-anchor="start" x="8" y="-393.5" font-family="Helvetica,sans-Serif" font-size="10.00">+ ~ServiceDescriptor()</text>
<text text-anchor="start" x="8" y="-382.5" font-family="Helvetica,sans-Serif" font-size="10.00"># setDestinationAddress()</text>
<text text-anchor="start" x="8" y="-371.5" font-family="Helvetica,sans-Serif" font-size="10.00"># setLinkTime()</text>
<text text-anchor="start" x="8" y="-360.5" font-family="Helvetica,sans-Serif" font-size="10.00"># setServer()</text>
</a>
</g>
</g>
<!-- Node2&#45;&gt;Node1 -->
<g id="edge1" class="edge"><title>Node2&#45;&gt;Node1</title>
<path fill="none" stroke="midnightblue" d="M85,-343.196C85,-334.303 85,-325.356 85,-316.619"/>
<polygon fill="none" stroke="midnightblue" points="81.5001,-343.2 85,-353.2 88.5001,-343.2 81.5001,-343.2"/>
</g>
</g>
</svg>
