<?xml version="1.0" encoding="UTF-8" standalone="no"?>
<!DOCTYPE svg PUBLIC "-//W3C//DTD SVG 1.1//EN"
 "http://www.w3.org/Graphics/SVG/1.1/DTD/svg11.dtd">
<!-- Generated by graphviz version 2.38.0 (20140413.2041)
 -->
<!-- Title: NetworkService::PostDescriptor Pages: 1 -->
<svg width="178pt" height="812pt"
 viewBox="0.00 0.00 178.00 812.00" xmlns="http://www.w3.org/2000/svg" xmlns:xlink="http://www.w3.org/1999/xlink">
<g id="graph0" class="graph" transform="scale(1 1) rotate(0) translate(4 808)">
<title>NetworkService::PostDescriptor</title>
<polygon fill="white" stroke="none" points="-4,4 -4,-808 174,-808 174,4 -4,4"/>
<!-- Node1 -->
<g id="node1" class="node"><title>Node1</title>
<polygon fill="#bfbfbf" stroke="black" points="6,-0.5 6,-156.5 164,-156.5 164,-0.5 6,-0.5"/>
<text text-anchor="middle" x="85" y="-144.5" font-family="Helvetica,sans-Serif" font-size="10.00">NetworkService::PostDescriptor</text>
<polyline fill="none" stroke="black" points="6,-137.5 164,-137.5 "/>
<text text-anchor="start" x="14" y="-125.5" font-family="Helvetica,sans-Serif" font-size="10.00">&#45; traffic</text>
<text text-anchor="start" x="14" y="-114.5" font-family="Helvetica,sans-Serif" font-size="10.00">&#45; direction</text>
<polyline fill="none" stroke="black" points="6,-107.5 164,-107.5 "/>
<text text-anchor="start" x="14" y="-95.5" font-family="Helvetica,sans-Serif" font-size="10.00">+ PostDescriptor()</text>
<text text-anchor="start" x="14" y="-84.5" font-family="Helvetica,sans-Serif" font-size="10.00">+ PostDescriptor()</text>
<text text-anchor="start" x="14" y="-73.5" font-family="Helvetica,sans-Serif" font-size="10.00">+ getDirection()</text>
<text text-anchor="start" x="14" y="-62.5" font-family="Helvetica,sans-Serif" font-size="10.00">+ getTraffic()</text>
<text text-anchor="start" x="14" y="-51.5" font-family="Helvetica,sans-Serif" font-size="10.00">+ getType()</text>
<text text-anchor="start" x="14" y="-40.5" font-family="Helvetica,sans-Serif" font-size="10.00">+ calculatePrice()</text>
<text text-anchor="start" x="14" y="-29.5" font-family="Helvetica,sans-Serif" font-size="10.00">+ ~PostDescriptor()</text>
<text text-anchor="start" x="14" y="-18.5" font-family="Helvetica,sans-Serif" font-size="10.00"># setTraffic()</text>
<text text-anchor="start" x="14" y="-7.5" font-family="Helvetica,sans-Serif" font-size="10.00"># setDirection()</text>
</g>
<!-- Node2 -->
<g id="node2" class="node"><title>Node2</title>
<g id="a_node2"><a xlink:href="class_network_service_1_1_service_descriptor.html" target="_top" xlink:title="Описатель сервиса, абстрактный класс ">
<polygon fill="white" stroke="black" points="0,-194.5 0,-361.5 170,-361.5 170,-194.5 0,-194.5"/>
<text text-anchor="middle" x="85" y="-349.5" font-family="Helvetica,sans-Serif" font-size="10.00">NetworkService::ServiceDescriptor</text>
<polyline fill="none" stroke="black" points="0,-342.5 170,-342.5 "/>
<text text-anchor="start" x="8" y="-330.5" font-family="Helvetica,sans-Serif" font-size="10.00">&#45; addr</text>
<text text-anchor="start" x="8" y="-319.5" font-family="Helvetica,sans-Serif" font-size="10.00">&#45; linktime</text>
<polyline fill="none" stroke="black" points="0,-312.5 170,-312.5 "/>
<text text-anchor="start" x="8" y="-300.5" font-family="Helvetica,sans-Serif" font-size="10.00">+ ServiceDescriptor()</text>
<text text-anchor="start" x="8" y="-289.5" font-family="Helvetica,sans-Serif" font-size="10.00">+ getType()</text>
<text text-anchor="start" x="8" y="-278.5" font-family="Helvetica,sans-Serif" font-size="10.00">+ calculatePrice()</text>
<text text-anchor="start" x="8" y="-267.5" font-family="Helvetica,sans-Serif" font-size="10.00">+ getDestinationAddress()</text>
<text text-anchor="start" x="8" y="-256.5" font-family="Helvetica,sans-Serif" font-size="10.00">+ getLinkTime()</text>
<text text-anchor="start" x="8" y="-245.5" font-family="Helvetica,sans-Serif" font-size="10.00">+ getServer()</text>
<text text-anchor="start" x="8" y="-234.5" font-family="Helvetica,sans-Serif" font-size="10.00">+ ~ServiceDescriptor()</text>
<text text-anchor="start" x="8" y="-223.5" font-family="Helvetica,sans-Serif" font-size="10.00"># setDestinationAddress()</text>
<text text-anchor="start" x="8" y="-212.5" font-family="Helvetica,sans-Serif" font-size="10.00"># setLinkTime()</text>
<text text-anchor="start" x="8" y="-201.5" font-family="Helvetica,sans-Serif" font-size="10.00"># setServer()</text>
</a>
</g>
</g>
<!-- Node2&#45;&gt;Node1 -->
<g id="edge1" class="edge"><title>Node2&#45;&gt;Node1</title>
<path fill="none" stroke="midnightblue" d="M85,-184.092C85,-174.935 85,-165.71 85,-156.734"/>
<polygon fill="none" stroke="midnightblue" points="81.5001,-184.387 85,-194.387 88.5001,-184.387 81.5001,-184.387"/>
</g>
<!-- Node3 -->
<g id="node3" class="node"><title>Node3</title>
<g id="a_node3"><a xlink:href="class_network_service_1_1_server.html" target="_top" xlink:title="Описатель сервера ">
<polygon fill="white" stroke="black" points="24.5,-409.5 24.5,-587.5 145.5,-587.5 145.5,-409.5 24.5,-409.5"/>
<text text-anchor="middle" x="85" y="-575.5" font-family="Helvetica,sans-Serif" font-size="10.00">NetworkService::Server</text>
<polyline fill="none" stroke="black" points="24.5,-568.5 145.5,-568.5 "/>
<text text-anchor="start" x="32.5" y="-556.5" font-family="Helvetica,sans-Serif" font-size="10.00">&#45; address</text>
<text text-anchor="start" x="32.5" y="-545.5" font-family="Helvetica,sans-Serif" font-size="10.00">&#45; name</text>
<text text-anchor="start" x="32.5" y="-534.5" font-family="Helvetica,sans-Serif" font-size="10.00">&#45; costpermin</text>
<text text-anchor="start" x="32.5" y="-523.5" font-family="Helvetica,sans-Serif" font-size="10.00">&#45; costpermb</text>
<polyline fill="none" stroke="black" points="24.5,-516.5 145.5,-516.5 "/>
<text text-anchor="start" x="32.5" y="-504.5" font-family="Helvetica,sans-Serif" font-size="10.00">+ Server()</text>
<text text-anchor="start" x="32.5" y="-493.5" font-family="Helvetica,sans-Serif" font-size="10.00">+ getAddress()</text>
<text text-anchor="start" x="32.5" y="-482.5" font-family="Helvetica,sans-Serif" font-size="10.00">+ getName()</text>
<text text-anchor="start" x="32.5" y="-471.5" font-family="Helvetica,sans-Serif" font-size="10.00">+ setName()</text>
<text text-anchor="start" x="32.5" y="-460.5" font-family="Helvetica,sans-Serif" font-size="10.00">+ getCostPerMin()</text>
<text text-anchor="start" x="32.5" y="-449.5" font-family="Helvetica,sans-Serif" font-size="10.00">+ getCostPerMB()</text>
<text text-anchor="start" x="32.5" y="-438.5" font-family="Helvetica,sans-Serif" font-size="10.00">+ setCostPerMin()</text>
<text text-anchor="start" x="32.5" y="-427.5" font-family="Helvetica,sans-Serif" font-size="10.00">+ setCostPerMB()</text>
<text text-anchor="start" x="32.5" y="-416.5" font-family="Helvetica,sans-Serif" font-size="10.00">+ ~Server()</text>
</a>
</g>
</g>
<!-- Node3&#45;&gt;Node2 -->
<g id="edge2" class="edge"><title>Node3&#45;&gt;Node2</title>
<path fill="none" stroke="#404040" d="M85,-409.258C85,-397.566 85,-385.541 85,-373.746"/>
<polygon fill="none" stroke="#404040" points="85.0001,-373.56 81,-367.561 85,-361.56 89,-367.56 85.0001,-373.56"/>
<text text-anchor="middle" x="102" y="-383" font-family="Helvetica,sans-Serif" font-size="10.00"> &#45;server</text>
</g>
<!-- Node4 -->
<g id="node4" class="node"><title>Node4</title>
<g id="a_node4"><a xlink:href="class_network_service_1_1_link_table.html" target="_top" xlink:title="Класс, реализующий &quot;таблицу связи&quot;. ">
<polygon fill="white" stroke="black" points="18,-625.5 18,-803.5 152,-803.5 152,-625.5 18,-625.5"/>
<text text-anchor="middle" x="85" y="-791.5" font-family="Helvetica,sans-Serif" font-size="10.00">NetworkService::LinkTable</text>
<polyline fill="none" stroke="black" points="18,-784.5 152,-784.5 "/>
<text text-anchor="start" x="26" y="-772.5" font-family="Helvetica,sans-Serif" font-size="10.00">&#45; linktable</text>
<polyline fill="none" stroke="black" points="18,-765.5 152,-765.5 "/>
<text text-anchor="start" x="26" y="-753.5" font-family="Helvetica,sans-Serif" font-size="10.00">+ LinkTable()</text>
<text text-anchor="start" x="26" y="-742.5" font-family="Helvetica,sans-Serif" font-size="10.00">+ addService()</text>
<text text-anchor="start" x="26" y="-731.5" font-family="Helvetica,sans-Serif" font-size="10.00">+ getServices()</text>
<text text-anchor="start" x="26" y="-720.5" font-family="Helvetica,sans-Serif" font-size="10.00">+ getServices()</text>
<text text-anchor="start" x="26" y="-709.5" font-family="Helvetica,sans-Serif" font-size="10.00">+ delService()</text>
<text text-anchor="start" x="26" y="-698.5" font-family="Helvetica,sans-Serif" font-size="10.00">+ showTable()</text>
<text text-anchor="start" x="26" y="-687.5" font-family="Helvetica,sans-Serif" font-size="10.00">+ operator[]()</text>
<text text-anchor="start" x="26" y="-676.5" font-family="Helvetica,sans-Serif" font-size="10.00">+ begin()</text>
<text text-anchor="start" x="26" y="-665.5" font-family="Helvetica,sans-Serif" font-size="10.00">+ begin()</text>
<text text-anchor="start" x="26" y="-654.5" font-family="Helvetica,sans-Serif" font-size="10.00">+ end()</text>
<text text-anchor="start" x="26" y="-643.5" font-family="Helvetica,sans-Serif" font-size="10.00">+ end()</text>
<text text-anchor="start" x="26" y="-632.5" font-family="Helvetica,sans-Serif" font-size="10.00">+ ~LinkTable()</text>
</a>
</g>
</g>
<!-- Node4&#45;&gt;Node3 -->
<g id="edge3" class="edge"><title>Node4&#45;&gt;Node3</title>
<path fill="none" stroke="midnightblue" d="M85,-614.959C85,-605.824 85,-596.606 85,-587.575"/>
<polygon fill="none" stroke="midnightblue" points="81.5001,-615.222 85,-625.222 88.5001,-615.223 81.5001,-615.222"/>
</g>
</g>
</svg>
