<?xml version="1.0" encoding="UTF-8" standalone="no"?>
<!DOCTYPE svg PUBLIC "-//W3C//DTD SVG 1.1//EN"
 "http://www.w3.org/Graphics/SVG/1.1/DTD/svg11.dtd">
<!-- Generated by graphviz version 2.38.0 (20140413.2041)
 -->
<!-- Title: NetworkService::PostDescriptor Pages: 1 -->
<svg width="178pt" height="823pt"
 viewBox="0.00 0.00 178.00 823.00" xmlns="http://www.w3.org/2000/svg" xmlns:xlink="http://www.w3.org/1999/xlink">
<g id="graph0" class="graph" transform="scale(1 1) rotate(0) translate(4 819)">
<title>NetworkService::PostDescriptor</title>
<polygon fill="white" stroke="none" points="-4,4 -4,-819 174,-819 174,4 -4,4"/>
<!-- Node1 -->
<g id="node1" class="node"><title>Node1</title>
<polygon fill="#bfbfbf" stroke="black" points="6,-0.5 6,-167.5 164,-167.5 164,-0.5 6,-0.5"/>
<text text-anchor="middle" x="85" y="-155.5" font-family="Helvetica,sans-Serif" font-size="10.00">NetworkService::PostDescriptor</text>
<polyline fill="none" stroke="black" points="6,-148.5 164,-148.5 "/>
<text text-anchor="start" x="14" y="-136.5" font-family="Helvetica,sans-Serif" font-size="10.00">&#45; traffic</text>
<text text-anchor="start" x="14" y="-125.5" font-family="Helvetica,sans-Serif" font-size="10.00">&#45; direction</text>
<polyline fill="none" stroke="black" points="6,-118.5 164,-118.5 "/>
<text text-anchor="start" x="14" y="-106.5" font-family="Helvetica,sans-Serif" font-size="10.00">+ PostDescriptor()</text>
<text text-anchor="start" x="14" y="-95.5" font-family="Helvetica,sans-Serif" font-size="10.00">+ PostDescriptor()</text>
<text text-anchor="start" x="14" y="-84.5" font-family="Helvetica,sans-Serif" font-size="10.00">+ getDirection()</text>
<text text-anchor="start" x="14" y="-73.5" font-family="Helvetica,sans-Serif" font-size="10.00">+ getTraffic()</text>
<text text-anchor="start" x="14" y="-62.5" font-family="Helvetica,sans-Serif" font-size="10.00">+ getType()</text>
<text text-anchor="start" x="14" y="-51.5" font-family="Helvetica,sans-Serif" font-size="10.00">+ getLinkTime()</text>
<text text-anchor="start" x="14" y="-40.5" font-family="Helvetica,sans-Serif" font-size="10.00">+ calculatePrice()</text>
<text text-anchor="start" x="14" y="-29.5" font-family="Helvetica,sans-Serif" font-size="10.00">+ ~PostDescriptor()</text>
<text text-anchor="start" x="14" y="-18.5" font-family="Helvetica,sans-Serif" font-size="10.00"># setTraffic()</text>
<text text-anchor="start" x="14" y="-7.5" font-family="Helvetica,sans-Serif" font-size="10.00"># setDirection()</text>
</g>
<!-- Node2 -->
<g id="node2" class="node"><title>Node2</title>
<g id="a_node2"><a xlink:href="class_network_service_1_1_service_descriptor.html" target="_top" xlink:title="Описатель сервиса, абстрактный класс ">
<polygon fill="white" stroke="black" points="0,-205.5 0,-372.5 170,-372.5 170,-205.5 0,-205.5"/>
<text text-anchor="middle" x="85" y="-360.5" font-family="Helvetica,sans-Serif" font-size="10.00">NetworkService::ServiceDescriptor</text>
<polyline fill="none" stroke="black" points="0,-353.5 170,-353.5 "/>
<text text-anchor="start" x="8" y="-341.5" font-family="Helvetica,sans-Serif" font-size="10.00">&#45; addr</text>
<text text-anchor="start" x="8" y="-330.5" font-family="Helvetica,sans-Serif" font-size="10.00">&#45; linktime</text>
<polyline fill="none" stroke="black" points="0,-323.5 170,-323.5 "/>
<text text-anchor="start" x="8" y="-311.5" font-family="Helvetica,sans-Serif" font-size="10.00">+ ServiceDescriptor()</text>
<text text-anchor="start" x="8" y="-300.5" font-family="Helvetica,sans-Serif" font-size="10.00">+ getType()</text>
<text text-anchor="start" x="8" y="-289.5" font-family="Helvetica,sans-Serif" font-size="10.00">+ calculatePrice()</text>
<text text-anchor="start" x="8" y="-278.5" font-family="Helvetica,sans-Serif" font-size="10.00">+ getDestinationAddress()</text>
<text text-anchor="start" x="8" y="-267.5" font-family="Helvetica,sans-Serif" font-size="10.00">+ getLinkTime()</text>
<text text-anchor="start" x="8" y="-256.5" font-family="Helvetica,sans-Serif" font-size="10.00">+ getServer()</text>
<text text-anchor="start" x="8" y="-245.5" font-family="Helvetica,sans-Serif" font-size="10.00">+ ~ServiceDescriptor()</text>
<text text-anchor="start" x="8" y="-234.5" font-family="Helvetica,sans-Serif" font-size="10.00"># setDestinationAddress()</text>
<text text-anchor="start" x="8" y="-223.5" font-family="Helvetica,sans-Serif" font-size="10.00"># setLinkTime()</text>
<text text-anchor="start" x="8" y="-212.5" font-family="Helvetica,sans-Serif" font-size="10.00"># setServer()</text>
</a>
</g>
</g>
<!-- Node2&#45;&gt;Node1 -->
<g id="edge1" class="edge"><title>Node2&#45;&gt;Node1</title>
<path fill="none" stroke="midnightblue" d="M85,-195.185C85,-186.06 85,-176.84 85,-167.824"/>
<polygon fill="none" stroke="midnightblue" points="81.5001,-195.432 85,-205.432 88.5001,-195.432 81.5001,-195.432"/>
</g>
<!-- Node3 -->
<g id="node3" class="node"><title>Node3</title>
<g id="a_node3"><a xlink:href="class_network_service_1_1_server.html" target="_top" xlink:title="Описатель сервера ">
<polygon fill="white" stroke="black" points="24.5,-420.5 24.5,-598.5 145.5,-598.5 145.5,-420.5 24.5,-420.5"/>
<text text-anchor="middle" x="85" y="-586.5" font-family="Helvetica,sans-Serif" font-size="10.00">NetworkService::Server</text>
<polyline fill="none" stroke="black" points="24.5,-579.5 145.5,-579.5 "/>
<text text-anchor="start" x="32.5" y="-567.5" font-family="Helvetica,sans-Serif" font-size="10.00">&#45; address</text>
<text text-anchor="start" x="32.5" y="-556.5" font-family="Helvetica,sans-Serif" font-size="10.00">&#45; name</text>
<text text-anchor="start" x="32.5" y="-545.5" font-family="Helvetica,sans-Serif" font-size="10.00">&#45; costpermin</text>
<text text-anchor="start" x="32.5" y="-534.5" font-family="Helvetica,sans-Serif" font-size="10.00">&#45; costpermb</text>
<polyline fill="none" stroke="black" points="24.5,-527.5 145.5,-527.5 "/>
<text text-anchor="start" x="32.5" y="-515.5" font-family="Helvetica,sans-Serif" font-size="10.00">+ Server()</text>
<text text-anchor="start" x="32.5" y="-504.5" font-family="Helvetica,sans-Serif" font-size="10.00">+ getAddress()</text>
<text text-anchor="start" x="32.5" y="-493.5" font-family="Helvetica,sans-Serif" font-size="10.00">+ getName()</text>
<text text-anchor="start" x="32.5" y="-482.5" font-family="Helvetica,sans-Serif" font-size="10.00">+ setName()</text>
<text text-anchor="start" x="32.5" y="-471.5" font-family="Helvetica,sans-Serif" font-size="10.00">+ getCostPerMin()</text>
<text text-anchor="start" x="32.5" y="-460.5" font-family="Helvetica,sans-Serif" font-size="10.00">+ getCostPerMB()</text>
<text text-anchor="start" x="32.5" y="-449.5" font-family="Helvetica,sans-Serif" font-size="10.00">+ setCostPerMin()</text>
<text text-anchor="start" x="32.5" y="-438.5" font-family="Helvetica,sans-Serif" font-size="10.00">+ setCostPerMB()</text>
<text text-anchor="start" x="32.5" y="-427.5" font-family="Helvetica,sans-Serif" font-size="10.00">+ ~Server()</text>
</a>
</g>
</g>
<!-- Node3&#45;&gt;Node2 -->
<g id="edge2" class="edge"><title>Node3&#45;&gt;Node2</title>
<path fill="none" stroke="#404040" d="M85,-420.258C85,-408.566 85,-396.541 85,-384.746"/>
<polygon fill="none" stroke="#404040" points="85.0001,-384.56 81,-378.561 85,-372.56 89,-378.56 85.0001,-384.56"/>
<text text-anchor="middle" x="102" y="-394" font-family="Helvetica,sans-Serif" font-size="10.00"> &#45;server</text>
</g>
<!-- Node4 -->
<g id="node4" class="node"><title>Node4</title>
<g id="a_node4"><a xlink:href="class_network_service_1_1_link_table.html" target="_top" xlink:title="Класс, реализующий &quot;таблицу связи&quot;. ">
<polygon fill="white" stroke="black" points="18,-636.5 18,-814.5 152,-814.5 152,-636.5 18,-636.5"/>
<text text-anchor="middle" x="85" y="-802.5" font-family="Helvetica,sans-Serif" font-size="10.00">NetworkService::LinkTable</text>
<polyline fill="none" stroke="black" points="18,-795.5 152,-795.5 "/>
<text text-anchor="start" x="26" y="-783.5" font-family="Helvetica,sans-Serif" font-size="10.00">&#45; linktable</text>
<polyline fill="none" stroke="black" points="18,-776.5 152,-776.5 "/>
<text text-anchor="start" x="26" y="-764.5" font-family="Helvetica,sans-Serif" font-size="10.00">+ LinkTable()</text>
<text text-anchor="start" x="26" y="-753.5" font-family="Helvetica,sans-Serif" font-size="10.00">+ addService()</text>
<text text-anchor="start" x="26" y="-742.5" font-family="Helvetica,sans-Serif" font-size="10.00">+ getServices()</text>
<text text-anchor="start" x="26" y="-731.5" font-family="Helvetica,sans-Serif" font-size="10.00">+ getServices()</text>
<text text-anchor="start" x="26" y="-720.5" font-family="Helvetica,sans-Serif" font-size="10.00">+ delService()</text>
<text text-anchor="start" x="26" y="-709.5" font-family="Helvetica,sans-Serif" font-size="10.00">+ showTable()</text>
<text text-anchor="start" x="26" y="-698.5" font-family="Helvetica,sans-Serif" font-size="10.00">+ operator[]()</text>
<text text-anchor="start" x="26" y="-687.5" font-family="Helvetica,sans-Serif" font-size="10.00">+ begin()</text>
<text text-anchor="start" x="26" y="-676.5" font-family="Helvetica,sans-Serif" font-size="10.00">+ begin()</text>
<text text-anchor="start" x="26" y="-665.5" font-family="Helvetica,sans-Serif" font-size="10.00">+ end()</text>
<text text-anchor="start" x="26" y="-654.5" font-family="Helvetica,sans-Serif" font-size="10.00">+ end()</text>
<text text-anchor="start" x="26" y="-643.5" font-family="Helvetica,sans-Serif" font-size="10.00">+ ~LinkTable()</text>
</a>
</g>
</g>
<!-- Node4&#45;&gt;Node3 -->
<g id="edge3" class="edge"><title>Node4&#45;&gt;Node3</title>
<path fill="none" stroke="midnightblue" d="M85,-625.959C85,-616.824 85,-607.606 85,-598.575"/>
<polygon fill="none" stroke="midnightblue" points="81.5001,-626.222 85,-636.222 88.5001,-626.223 81.5001,-626.222"/>
</g>
</g>
</svg>
