<?xml version="1.0" encoding="UTF-8" standalone="no"?>
<!DOCTYPE svg PUBLIC "-//W3C//DTD SVG 1.1//EN"
 "http://www.w3.org/Graphics/SVG/1.1/DTD/svg11.dtd">
<!-- Generated by graphviz version 2.38.0 (20140413.2041)
 -->
<!-- Title: NetworkServiceLib/filedescriptor.h Pages: 1 -->
<!--zoomable 140 -->
<svg id="main" version="1.1" xmlns="http://www.w3.org/2000/svg" xmlns:xlink="http://www.w3.org/1999/xlink" xml:space="preserve" onload="init(evt)">
<style type="text/css"><![CDATA[
.edge:hover path { stroke: red; }
.edge:hover polygon { stroke: red; fill: red; }
]]></style>
<script type="text/javascript"><![CDATA[
var edges = document.getElementsByTagName('g');
if (edges && edges.length) {
  for (var i=0;i<edges.length;i++) {
    if (edges[i].id.substr(0,4)=='edge') {
      edges[i].setAttribute('class','edge');
    }
  }
}
]]></script>
        <defs>
                <circle id="rim" cx="0" cy="0" r="7"/>
                <circle id="rim2" cx="0" cy="0" r="3.5"/>
                <g id="zoomPlus">
                        <use xlink:href="#rim" fill="#404040">
                                <set attributeName="fill" to="#808080" begin="zoomplus.mouseover" end="zoomplus.mouseout"/>
                        </use>
                        <path d="M-4,0h8M0,-4v8" fill="none" stroke="white" stroke-width="1.5" pointer-events="none"/>
                </g>
                <g id="zoomMin">
                        <use xlink:href="#rim" fill="#404040">
                                <set attributeName="fill" to="#808080" begin="zoomminus.mouseover" end="zoomminus.mouseout"/>
                        </use>
                        <path d="M-4,0h8" fill="none" stroke="white" stroke-width="1.5" pointer-events="none"/>
                </g>
                <g id="dirArrow">
                        <path fill="none" stroke="white" stroke-width="1.5" d="M0,-3.0v7 M-2.5,-0.5L0,-3.0L2.5,-0.5"/>
                </g>
               <g id="resetDef">
                       <use xlink:href="#rim2" fill="#404040">
                               <set attributeName="fill" to="#808080" begin="reset.mouseover" end="reset.mouseout"/>
                       </use>
               </g>
        </defs>

<script type="text/javascript">
var viewWidth = 1510;
var viewHeight = 140;
var sectionId = 'dynsection-0';
</script>
<script xlink:href="svgpan.js"/>
<svg id="graph" class="graph">
<g id="viewport">
<title>NetworkServiceLib/filedescriptor.h</title>
<polygon fill="white" stroke="none" points="-4,4 -4,-136 1506,-136 1506,4 -4,4"/>
<!-- Node1 -->
<g id="node1" class="node"><title>Node1</title>
<polygon fill="#bfbfbf" stroke="black" points="642.5,-112.5 642.5,-131.5 808.5,-131.5 808.5,-112.5 642.5,-112.5"/>
<text text-anchor="middle" x="725.5" y="-119.5" font-family="Helvetica,sans-Serif" font-size="10.00">NetworkServiceLib/filedescriptor.h</text>
</g>
<!-- Node2 -->
<g id="node2" class="node"><title>Node2</title>
<g id="a_node2"><a xlink:href="networkservice_8h.html" target="_top" xlink:title="Файл, содержаший все необходимые определения и включения для работы библиотеки ">
<polygon fill="white" stroke="black" points="637.5,-56.5 637.5,-75.5 813.5,-75.5 813.5,-56.5 637.5,-56.5"/>
<text text-anchor="middle" x="725.5" y="-63.5" font-family="Helvetica,sans-Serif" font-size="10.00">NetworkServiceLib/networkservice.h</text>
</a>
</g>
</g>
<!-- Node1&#45;&gt;Node2 -->
<g id="edge1" class="edge"><title>Node1&#45;&gt;Node2</title>
<path fill="none" stroke="midnightblue" d="M725.5,-101.805C725.5,-92.9102 725.5,-82.7798 725.5,-75.7511"/>
<polygon fill="midnightblue" stroke="midnightblue" points="722,-102.083 725.5,-112.083 729,-102.083 722,-102.083"/>
</g>
<!-- Node3 -->
<g id="node3" class="node"><title>Node3</title>
<g id="a_node3"><a xlink:href="application_8cpp.html" target="_top" xlink:title="Файл, содержащий реализацию класса Application. ">
<polygon fill="white" stroke="black" points="0,-0.5 0,-19.5 167,-19.5 167,-0.5 0,-0.5"/>
<text text-anchor="middle" x="83.5" y="-7.5" font-family="Helvetica,sans-Serif" font-size="10.00">NetworkServiceLib/application.cpp</text>
</a>
</g>
</g>
<!-- Node2&#45;&gt;Node3 -->
<g id="edge2" class="edge"><title>Node2&#45;&gt;Node3</title>
<path fill="none" stroke="midnightblue" d="M627.261,-57.4352C517.203,-48.8502 333.499,-34.1909 175.5,-20 172.783,-19.7559 170.021,-19.5046 167.232,-19.248"/>
<polygon fill="midnightblue" stroke="midnightblue" points="627.109,-60.9339 637.351,-58.2213 627.653,-53.955 627.109,-60.9339"/>
</g>
<!-- Node4 -->
<g id="node4" class="node"><title>Node4</title>
<g id="a_node4"><a xlink:href="filedescriptor_8cpp.html" target="_top" xlink:title="Файл, содержащий реализацию класса FileDescriptor. ">
<polygon fill="white" stroke="black" points="184.5,-0.5 184.5,-19.5 360.5,-19.5 360.5,-0.5 184.5,-0.5"/>
<text text-anchor="middle" x="272.5" y="-7.5" font-family="Helvetica,sans-Serif" font-size="10.00">NetworkServiceLib/filedescriptor.cpp</text>
</a>
</g>
</g>
<!-- Node2&#45;&gt;Node4 -->
<g id="edge3" class="edge"><title>Node2&#45;&gt;Node4</title>
<path fill="none" stroke="midnightblue" d="M643.533,-55.2291C558.023,-45.0359 425.312,-29.216 343.943,-19.5164"/>
<polygon fill="midnightblue" stroke="midnightblue" points="643.377,-58.7352 653.721,-56.4435 644.205,-51.7844 643.377,-58.7352"/>
</g>
<!-- Node5 -->
<g id="node5" class="node"><title>Node5</title>
<g id="a_node5"><a xlink:href="helpers_8cpp.html" target="_top" xlink:title="Файл, содержащий реализацию функций&#45;помощников, не принадлежащих какому&#45;либо объекту ...">
<polygon fill="white" stroke="black" points="378.5,-0.5 378.5,-19.5 530.5,-19.5 530.5,-0.5 378.5,-0.5"/>
<text text-anchor="middle" x="454.5" y="-7.5" font-family="Helvetica,sans-Serif" font-size="10.00">NetworkServiceLib/helpers.cpp</text>
</a>
</g>
</g>
<!-- Node2&#45;&gt;Node5 -->
<g id="edge4" class="edge"><title>Node2&#45;&gt;Node5</title>
<path fill="none" stroke="midnightblue" d="M672.672,-54.4734C621.455,-44.2678 544.73,-28.9794 497.24,-19.5164"/>
<polygon fill="midnightblue" stroke="midnightblue" points="672.068,-57.9218 682.559,-56.4435 673.436,-51.0567 672.068,-57.9218"/>
</g>
<!-- Node6 -->
<g id="node6" class="node"><title>Node6</title>
<g id="a_node6"><a xlink:href="linktable_8cpp.html" target="_top" xlink:title="Файл, содержащий реализацию класса LinkTable. ">
<polygon fill="white" stroke="black" points="549,-0.5 549,-19.5 706,-19.5 706,-0.5 549,-0.5"/>
<text text-anchor="middle" x="627.5" y="-7.5" font-family="Helvetica,sans-Serif" font-size="10.00">NetworkServiceLib/linktable.cpp</text>
</a>
</g>
</g>
<!-- Node2&#45;&gt;Node6 -->
<g id="edge5" class="edge"><title>Node2&#45;&gt;Node6</title>
<path fill="none" stroke="midnightblue" d="M700.914,-51.4526C682.822,-41.4835 658.765,-28.2279 643.206,-19.6545"/>
<polygon fill="midnightblue" stroke="midnightblue" points="699.307,-54.5633 709.755,-56.324 702.685,-48.4324 699.307,-54.5633"/>
</g>
<!-- Node7 -->
<g id="node7" class="node"><title>Node7</title>
<g id="a_node7"><a xlink:href="networkdescriptor_8cpp.html" target="_top" xlink:title="Файл, содержащий реализацию класса NetworkDescriptor. ">
<polygon fill="white" stroke="black" points="724.5,-0.5 724.5,-19.5 922.5,-19.5 922.5,-0.5 724.5,-0.5"/>
<text text-anchor="middle" x="823.5" y="-7.5" font-family="Helvetica,sans-Serif" font-size="10.00">NetworkServiceLib/networkdescriptor.cpp</text>
</a>
</g>
</g>
<!-- Node2&#45;&gt;Node7 -->
<g id="edge6" class="edge"><title>Node2&#45;&gt;Node7</title>
<path fill="none" stroke="midnightblue" d="M750.086,-51.4526C768.178,-41.4835 792.235,-28.2279 807.794,-19.6545"/>
<polygon fill="midnightblue" stroke="midnightblue" points="748.315,-48.4324 741.245,-56.324 751.693,-54.5633 748.315,-48.4324"/>
</g>
<!-- Node8 -->
<g id="node8" class="node"><title>Node8</title>
<g id="a_node8"><a xlink:href="postdescriptor_8cpp.html" target="_top" xlink:title="Файл, содержащий реализацию класса PostDescriptor. ">
<polygon fill="white" stroke="black" points="940.5,-0.5 940.5,-19.5 1122.5,-19.5 1122.5,-0.5 940.5,-0.5"/>
<text text-anchor="middle" x="1031.5" y="-7.5" font-family="Helvetica,sans-Serif" font-size="10.00">NetworkServiceLib/postdescriptor.cpp</text>
</a>
</g>
</g>
<!-- Node2&#45;&gt;Node8 -->
<g id="edge7" class="edge"><title>Node2&#45;&gt;Node8</title>
<path fill="none" stroke="midnightblue" d="M784.07,-54.6642C841.898,-44.4592 929.281,-29.0386 983.24,-19.5164"/>
<polygon fill="midnightblue" stroke="midnightblue" points="783.226,-51.2589 773.987,-56.4435 784.443,-58.1523 783.226,-51.2589"/>
</g>
<!-- Node9 -->
<g id="node9" class="node"><title>Node9</title>
<g id="a_node9"><a xlink:href="server_8cpp.html" target="_top" xlink:title="Файл, содержащий реализацию класса Server. ">
<polygon fill="white" stroke="black" points="1140.5,-0.5 1140.5,-19.5 1288.5,-19.5 1288.5,-0.5 1140.5,-0.5"/>
<text text-anchor="middle" x="1214.5" y="-7.5" font-family="Helvetica,sans-Serif" font-size="10.00">NetworkServiceLib/server.cpp</text>
</a>
</g>
</g>
<!-- Node2&#45;&gt;Node9 -->
<g id="edge8" class="edge"><title>Node2&#45;&gt;Node9</title>
<path fill="none" stroke="midnightblue" d="M812.701,-55.3705C906.051,-45.0619 1052.56,-28.8827 1140.49,-19.1726"/>
<polygon fill="midnightblue" stroke="midnightblue" points="812.269,-51.8968 802.714,-56.4733 813.037,-58.8545 812.269,-51.8968"/>
</g>
<!-- Node10 -->
<g id="node10" class="node"><title>Node10</title>
<g id="a_node10"><a xlink:href="servicedescriptor_8cpp.html" target="_top" xlink:title="Файл, содержащий реализацию класса ServiceDescriptor. ">
<polygon fill="white" stroke="black" points="1307,-0.5 1307,-19.5 1502,-19.5 1502,-0.5 1307,-0.5"/>
<text text-anchor="middle" x="1404.5" y="-7.5" font-family="Helvetica,sans-Serif" font-size="10.00">NetworkServiceLib/servicedescriptor.cpp</text>
</a>
</g>
</g>
<!-- Node2&#45;&gt;Node10 -->
<g id="edge9" class="edge"><title>Node2&#45;&gt;Node10</title>
<path fill="none" stroke="midnightblue" d="M823.801,-57.4288C937.767,-48.6135 1131.25,-33.5311 1297.5,-20 1300.57,-19.7505 1303.68,-19.4957 1306.83,-19.2375"/>
<polygon fill="midnightblue" stroke="midnightblue" points="823.403,-53.9491 813.703,-58.2097 823.943,-60.9282 823.403,-53.9491"/>
</g>
</g>
</svg>
        <g id="navigator" transform="translate(0 0)" fill="#404254">
                <rect fill="#f2f5e9" fill-opacity="0.5" stroke="#606060" stroke-width=".5" x="0" y="0" width="60" height="60"/>
                <use id="zoomplus" xlink:href="#zoomPlus" x="17" y="9" onmousedown="handleZoom(evt,'in')"/>
                <use id="zoomminus" xlink:href="#zoomMin" x="42" y="9" onmousedown="handleZoom(evt,'out')"/>
                <use id="reset" xlink:href="#resetDef" x="30" y="36" onmousedown="handleReset()"/>
                <g id="arrowUp" xlink:href="#dirArrow" transform="translate(30 24)" onmousedown="handlePan(0,-1)">
                  <use xlink:href="#rim" fill="#404040">
                        <set attributeName="fill" to="#808080" begin="arrowUp.mouseover" end="arrowUp.mouseout"/>
                  </use>
                  <path fill="none" stroke="white" stroke-width="1.5" d="M0,-3.0v7 M-2.5,-0.5L0,-3.0L2.5,-0.5"/>
                </g>
                <g id="arrowRight" xlink:href="#dirArrow" transform="rotate(90) translate(36 -43)" onmousedown="handlePan(1,0)">
                  <use xlink:href="#rim" fill="#404040">
                        <set attributeName="fill" to="#808080" begin="arrowRight.mouseover" end="arrowRight.mouseout"/>
                  </use>
                  <path fill="none" stroke="white" stroke-width="1.5" d="M0,-3.0v7 M-2.5,-0.5L0,-3.0L2.5,-0.5"/>
                </g>
                <g id="arrowDown" xlink:href="#dirArrow" transform="rotate(180) translate(-30 -48)" onmousedown="handlePan(0,1)">
                  <use xlink:href="#rim" fill="#404040">
                        <set attributeName="fill" to="#808080" begin="arrowDown.mouseover" end="arrowDown.mouseout"/>
                  </use>
                  <path fill="none" stroke="white" stroke-width="1.5" d="M0,-3.0v7 M-2.5,-0.5L0,-3.0L2.5,-0.5"/>
                </g>
                <g id="arrowLeft" xlink:href="#dirArrow" transform="rotate(270) translate(-36 17)" onmousedown="handlePan(-1,0)">
                  <use xlink:href="#rim" fill="#404040">
                        <set attributeName="fill" to="#808080" begin="arrowLeft.mouseover" end="arrowLeft.mouseout"/>
                  </use>
                  <path fill="none" stroke="white" stroke-width="1.5" d="M0,-3.0v7 M-2.5,-0.5L0,-3.0L2.5,-0.5"/>
                </g>
        </g>
        <svg viewBox="0 0 15 15" width="100%" height="30px" preserveAspectRatio="xMaxYMin meet">
         <g id="arrow_out" transform="scale(0.3 0.3)">
          <a xlink:href="filedescriptor_8h__dep__incl_org.svg" target="_base">
           <rect id="button" ry="5" rx="5" y="6" x="6" height="38" width="38"
                fill="#f2f5e9" fill-opacity="0.5" stroke="#606060" stroke-width="1.0"/>
           <path id="arrow"
             d="M 11.500037,31.436501 C 11.940474,20.09759 22.043105,11.32322 32.158766,21.979434 L 37.068811,17.246167 C 37.068811,17.246167 37.088388,32 37.088388,32 L 22.160133,31.978069 C 22.160133,31.978069 26.997745,27.140456 26.997745,27.140456 C 18.528582,18.264221 13.291696,25.230495 11.500037,31.436501 z"
             style="fill:#404040;"/>
          </a>
         </g>
        </svg>
</svg>
