<?xml version="1.0" encoding="UTF-8" standalone="no"?>
<!DOCTYPE svg PUBLIC "-//W3C//DTD SVG 1.1//EN"
 "http://www.w3.org/Graphics/SVG/1.1/DTD/svg11.dtd">
<!-- Generated by graphviz version 2.38.0 (20140413.2041)
 -->
<!-- Title: Иерархия классов. Графический вид. Pages: 1 -->
<svg width="577pt" height="66pt"
 viewBox="0.00 0.00 577.00 66.00" xmlns="http://www.w3.org/2000/svg" xmlns:xlink="http://www.w3.org/1999/xlink">
<g id="graph0" class="graph" transform="scale(1 1) rotate(0) translate(4 62)">
<title>Иерархия классов. Графический вид.</title>
<polygon fill="white" stroke="none" points="-4,4 -4,-62 573,-62 573,4 -4,4"/>
<!-- Node1 -->
<g id="node1" class="node"><title>Node1</title>
<g id="a_node1"><a xlink:href="class_network_service_1_1_service_descriptor.html" target="_top" xlink:title="Описатель сервиса, абстрактный класс ">
<polygon fill="white" stroke="black" points="0,-19.5 0,-38.5 170,-38.5 170,-19.5 0,-19.5"/>
<text text-anchor="middle" x="85" y="-26.5" font-family="Helvetica,sans-Serif" font-size="10.00">NetworkService::ServiceDescriptor</text>
</a>
</g>
</g>
<!-- Node2 -->
<g id="node2" class="node"><title>Node2</title>
<g id="a_node2"><a xlink:href="class_network_service_1_1_network_descriptor.html" target="_top" xlink:title="Описатель сервиса &quot;сеть&quot;, наследуется от ServiceDescriptor. ">
<polygon fill="white" stroke="black" points="206,-38.5 206,-57.5 380,-57.5 380,-38.5 206,-38.5"/>
<text text-anchor="middle" x="293" y="-45.5" font-family="Helvetica,sans-Serif" font-size="10.00">NetworkService::NetworkDescriptor</text>
</a>
</g>
</g>
<!-- Node1&#45;&gt;Node2 -->
<g id="edge1" class="edge"><title>Node1&#45;&gt;Node2</title>
<path fill="none" stroke="midnightblue" d="M180.102,-37.6793C188.68,-38.4705 197.341,-39.2693 205.844,-40.0536"/>
<polygon fill="midnightblue" stroke="midnightblue" points="180.364,-34.1887 170.085,-36.7554 179.721,-41.1592 180.364,-34.1887"/>
</g>
<!-- Node3 -->
<g id="node3" class="node"><title>Node3</title>
<g id="a_node3"><a xlink:href="class_network_service_1_1_post_descriptor.html" target="_top" xlink:title="Описатель сервиса &quot;почта&quot;, наследуемый от ServiceDescriptor. ">
<polygon fill="white" stroke="black" points="214,-0.5 214,-19.5 372,-19.5 372,-0.5 214,-0.5"/>
<text text-anchor="middle" x="293" y="-7.5" font-family="Helvetica,sans-Serif" font-size="10.00">NetworkService::PostDescriptor</text>
</a>
</g>
</g>
<!-- Node1&#45;&gt;Node3 -->
<g id="edge2" class="edge"><title>Node1&#45;&gt;Node3</title>
<path fill="none" stroke="midnightblue" d="M180.324,-20.3002C191.532,-19.2665 202.877,-18.22 213.825,-17.2103"/>
<polygon fill="midnightblue" stroke="midnightblue" points="179.721,-16.8408 170.085,-21.2446 180.364,-23.8113 179.721,-16.8408"/>
</g>
<!-- Node4 -->
<g id="node4" class="node"><title>Node4</title>
<g id="a_node4"><a xlink:href="class_network_service_1_1_file_descriptor.html" target="_top" xlink:title="Класс, описывающий сервис &quot;файл&quot;. ">
<polygon fill="white" stroke="black" points="416,-0.5 416,-19.5 569,-19.5 569,-0.5 416,-0.5"/>
<text text-anchor="middle" x="492.5" y="-7.5" font-family="Helvetica,sans-Serif" font-size="10.00">NetworkService::FileDescriptor</text>
</a>
</g>
</g>
<!-- Node3&#45;&gt;Node4 -->
<g id="edge3" class="edge"><title>Node3&#45;&gt;Node4</title>
<path fill="none" stroke="midnightblue" d="M382.301,-10C393.53,-10 404.941,-10 415.944,-10"/>
<polygon fill="midnightblue" stroke="midnightblue" points="382.057,-6.5001 372.057,-10 382.057,-13.5001 382.057,-6.5001"/>
</g>
</g>
</svg>
