<?xml version="1.0" encoding="UTF-8" standalone="no"?>
<!DOCTYPE svg PUBLIC "-//W3C//DTD SVG 1.1//EN"
 "http://www.w3.org/Graphics/SVG/1.1/DTD/svg11.dtd">
<!-- Generated by graphviz version 2.38.0 (20140413.2041)
 -->
<!-- Title: Иерархия классов. Графический вид. Pages: 1 -->
<svg width="278pt" height="66pt"
 viewBox="0.00 0.00 278.00 66.00" xmlns="http://www.w3.org/2000/svg" xmlns:xlink="http://www.w3.org/1999/xlink">
<g id="graph0" class="graph" transform="scale(1 1) rotate(0) translate(4 62)">
<title>Иерархия классов. Графический вид.</title>
<polygon fill="white" stroke="none" points="-4,4 -4,-62 274,-62 274,4 -4,4"/>
<!-- Node1 -->
<g id="node1" class="node"><title>Node1</title>
<polygon fill="white" stroke="#bfbfbf" points="0,-19.5 0,-38.5 47,-38.5 47,-19.5 0,-19.5"/>
<text text-anchor="middle" x="23.5" y="-26.5" font-family="Helvetica,sans-Serif" font-size="10.00">iterator</text>
</g>
<!-- Node2 -->
<g id="node2" class="node"><title>Node2</title>
<g id="a_node2"><a xlink:href="class_network_service_1_1_my_const_iterator.html" target="_top" xlink:title="Шаблонный класс итератора ">
<polygon fill="white" stroke="black" points="83,-38.5 83,-57.5 270,-57.5 270,-38.5 83,-38.5"/>
<text text-anchor="middle" x="176.5" y="-45.5" font-family="Helvetica,sans-Serif" font-size="10.00">NetworkService::MyConstIterator&lt; T &gt;</text>
</a>
</g>
</g>
<!-- Node1&#45;&gt;Node2 -->
<g id="edge1" class="edge"><title>Node1&#45;&gt;Node2</title>
<path fill="none" stroke="midnightblue" d="M57.1177,-33.1042C69.7721,-34.6965 84.831,-36.5913 99.8955,-38.4868"/>
<polygon fill="midnightblue" stroke="midnightblue" points="57.465,-29.6204 47.1062,-31.8445 56.591,-36.5656 57.465,-29.6204"/>
</g>
<!-- Node3 -->
<g id="node3" class="node"><title>Node3</title>
<g id="a_node3"><a xlink:href="class_network_service_1_1_my_iterator.html" target="_top" xlink:title="Шаблонный класс итератора ">
<polygon fill="white" stroke="black" points="96,-0.5 96,-19.5 257,-19.5 257,-0.5 96,-0.5"/>
<text text-anchor="middle" x="176.5" y="-7.5" font-family="Helvetica,sans-Serif" font-size="10.00">NetworkService::MyIterator&lt; T &gt;</text>
</a>
</g>
</g>
<!-- Node1&#45;&gt;Node3 -->
<g id="edge2" class="edge"><title>Node1&#45;&gt;Node3</title>
<path fill="none" stroke="midnightblue" d="M57.1177,-24.8958C69.7721,-23.3035 84.831,-21.4087 99.8955,-19.5132"/>
<polygon fill="midnightblue" stroke="midnightblue" points="56.591,-21.4344 47.1062,-26.1555 57.465,-28.3796 56.591,-21.4344"/>
</g>
</g>
</svg>
