<?xml version="1.0" encoding="UTF-8" standalone="no"?>
<!DOCTYPE svg PUBLIC "-//W3C//DTD SVG 1.1//EN"
 "http://www.w3.org/Graphics/SVG/1.1/DTD/svg11.dtd">
<!-- Generated by graphviz version 2.38.0 (20140413.2041)
 -->
<!-- Title: NetworkServiceLib/myiterator.h Pages: 1 -->
<svg width="1510pt" height="140pt"
 viewBox="0.00 0.00 1510.00 140.00" xmlns="http://www.w3.org/2000/svg" xmlns:xlink="http://www.w3.org/1999/xlink">
<g id="graph0" class="graph" transform="scale(1 1) rotate(0) translate(4 136)">
<title>NetworkServiceLib/myiterator.h</title>
<polygon fill="white" stroke="none" points="-4,4 -4,-136 1506,-136 1506,4 -4,4"/>
<!-- Node1 -->
<g id="node1" class="node"><title>Node1</title>
<polygon fill="#bfbfbf" stroke="black" points="648.5,-112.5 648.5,-131.5 802.5,-131.5 802.5,-112.5 648.5,-112.5"/>
<text text-anchor="middle" x="725.5" y="-119.5" font-family="Helvetica,sans-Serif" font-size="10.00">NetworkServiceLib/myiterator.h</text>
</g>
<!-- Node2 -->
<g id="node2" class="node"><title>Node2</title>
<g id="a_node2"><a xlink:href="networkservice_8h.html" target="_top" xlink:title="Файл, содержаший все необходимые определения и включения для работы библиотеки ">
<polygon fill="white" stroke="black" points="637.5,-56.5 637.5,-75.5 813.5,-75.5 813.5,-56.5 637.5,-56.5"/>
<text text-anchor="middle" x="725.5" y="-63.5" font-family="Helvetica,sans-Serif" font-size="10.00">NetworkServiceLib/networkservice.h</text>
</a>
</g>
</g>
<!-- Node1&#45;&gt;Node2 -->
<g id="edge1" class="edge"><title>Node1&#45;&gt;Node2</title>
<path fill="none" stroke="midnightblue" d="M725.5,-101.805C725.5,-92.9102 725.5,-82.7798 725.5,-75.7511"/>
<polygon fill="midnightblue" stroke="midnightblue" points="722,-102.083 725.5,-112.083 729,-102.083 722,-102.083"/>
</g>
<!-- Node3 -->
<g id="node3" class="node"><title>Node3</title>
<g id="a_node3"><a xlink:href="application_8cpp.html" target="_top" xlink:title="Файл, содержащий реализацию класса Application. ">
<polygon fill="white" stroke="black" points="0,-0.5 0,-19.5 167,-19.5 167,-0.5 0,-0.5"/>
<text text-anchor="middle" x="83.5" y="-7.5" font-family="Helvetica,sans-Serif" font-size="10.00">NetworkServiceLib/application.cpp</text>
</a>
</g>
</g>
<!-- Node2&#45;&gt;Node3 -->
<g id="edge2" class="edge"><title>Node2&#45;&gt;Node3</title>
<path fill="none" stroke="midnightblue" d="M627.261,-57.4352C517.203,-48.8502 333.499,-34.1909 175.5,-20 172.783,-19.7559 170.021,-19.5046 167.232,-19.248"/>
<polygon fill="midnightblue" stroke="midnightblue" points="627.109,-60.9339 637.351,-58.2213 627.653,-53.955 627.109,-60.9339"/>
</g>
<!-- Node4 -->
<g id="node4" class="node"><title>Node4</title>
<g id="a_node4"><a xlink:href="filedescriptor_8cpp.html" target="_top" xlink:title="Файл, содержащий реализацию класса FileDescriptor. ">
<polygon fill="white" stroke="black" points="184.5,-0.5 184.5,-19.5 360.5,-19.5 360.5,-0.5 184.5,-0.5"/>
<text text-anchor="middle" x="272.5" y="-7.5" font-family="Helvetica,sans-Serif" font-size="10.00">NetworkServiceLib/filedescriptor.cpp</text>
</a>
</g>
</g>
<!-- Node2&#45;&gt;Node4 -->
<g id="edge3" class="edge"><title>Node2&#45;&gt;Node4</title>
<path fill="none" stroke="midnightblue" d="M643.533,-55.2291C558.023,-45.0359 425.312,-29.216 343.943,-19.5164"/>
<polygon fill="midnightblue" stroke="midnightblue" points="643.377,-58.7352 653.721,-56.4435 644.205,-51.7844 643.377,-58.7352"/>
</g>
<!-- Node5 -->
<g id="node5" class="node"><title>Node5</title>
<g id="a_node5"><a xlink:href="helpers_8cpp.html" target="_top" xlink:title="Файл, содержащий реализацию функций&#45;помощников, не принадлежащих какому&#45;либо объекту ...">
<polygon fill="white" stroke="black" points="378.5,-0.5 378.5,-19.5 530.5,-19.5 530.5,-0.5 378.5,-0.5"/>
<text text-anchor="middle" x="454.5" y="-7.5" font-family="Helvetica,sans-Serif" font-size="10.00">NetworkServiceLib/helpers.cpp</text>
</a>
</g>
</g>
<!-- Node2&#45;&gt;Node5 -->
<g id="edge4" class="edge"><title>Node2&#45;&gt;Node5</title>
<path fill="none" stroke="midnightblue" d="M672.672,-54.4734C621.455,-44.2678 544.73,-28.9794 497.24,-19.5164"/>
<polygon fill="midnightblue" stroke="midnightblue" points="672.068,-57.9218 682.559,-56.4435 673.436,-51.0567 672.068,-57.9218"/>
</g>
<!-- Node6 -->
<g id="node6" class="node"><title>Node6</title>
<g id="a_node6"><a xlink:href="linktable_8cpp.html" target="_top" xlink:title="Файл, содержащий реализацию класса LinkTable. ">
<polygon fill="white" stroke="black" points="549,-0.5 549,-19.5 706,-19.5 706,-0.5 549,-0.5"/>
<text text-anchor="middle" x="627.5" y="-7.5" font-family="Helvetica,sans-Serif" font-size="10.00">NetworkServiceLib/linktable.cpp</text>
</a>
</g>
</g>
<!-- Node2&#45;&gt;Node6 -->
<g id="edge5" class="edge"><title>Node2&#45;&gt;Node6</title>
<path fill="none" stroke="midnightblue" d="M700.914,-51.4526C682.822,-41.4835 658.765,-28.2279 643.206,-19.6545"/>
<polygon fill="midnightblue" stroke="midnightblue" points="699.307,-54.5633 709.755,-56.324 702.685,-48.4324 699.307,-54.5633"/>
</g>
<!-- Node7 -->
<g id="node7" class="node"><title>Node7</title>
<g id="a_node7"><a xlink:href="networkdescriptor_8cpp.html" target="_top" xlink:title="Файл, содержащий реализацию класса NetworkDescriptor. ">
<polygon fill="white" stroke="black" points="724.5,-0.5 724.5,-19.5 922.5,-19.5 922.5,-0.5 724.5,-0.5"/>
<text text-anchor="middle" x="823.5" y="-7.5" font-family="Helvetica,sans-Serif" font-size="10.00">NetworkServiceLib/networkdescriptor.cpp</text>
</a>
</g>
</g>
<!-- Node2&#45;&gt;Node7 -->
<g id="edge6" class="edge"><title>Node2&#45;&gt;Node7</title>
<path fill="none" stroke="midnightblue" d="M750.086,-51.4526C768.178,-41.4835 792.235,-28.2279 807.794,-19.6545"/>
<polygon fill="midnightblue" stroke="midnightblue" points="748.315,-48.4324 741.245,-56.324 751.693,-54.5633 748.315,-48.4324"/>
</g>
<!-- Node8 -->
<g id="node8" class="node"><title>Node8</title>
<g id="a_node8"><a xlink:href="postdescriptor_8cpp.html" target="_top" xlink:title="Файл, содержащий реализацию класса PostDescriptor. ">
<polygon fill="white" stroke="black" points="940.5,-0.5 940.5,-19.5 1122.5,-19.5 1122.5,-0.5 940.5,-0.5"/>
<text text-anchor="middle" x="1031.5" y="-7.5" font-family="Helvetica,sans-Serif" font-size="10.00">NetworkServiceLib/postdescriptor.cpp</text>
</a>
</g>
</g>
<!-- Node2&#45;&gt;Node8 -->
<g id="edge7" class="edge"><title>Node2&#45;&gt;Node8</title>
<path fill="none" stroke="midnightblue" d="M784.07,-54.6642C841.898,-44.4592 929.281,-29.0386 983.24,-19.5164"/>
<polygon fill="midnightblue" stroke="midnightblue" points="783.226,-51.2589 773.987,-56.4435 784.443,-58.1523 783.226,-51.2589"/>
</g>
<!-- Node9 -->
<g id="node9" class="node"><title>Node9</title>
<g id="a_node9"><a xlink:href="server_8cpp.html" target="_top" xlink:title="Файл, содержащий реализацию класса Server. ">
<polygon fill="white" stroke="black" points="1140.5,-0.5 1140.5,-19.5 1288.5,-19.5 1288.5,-0.5 1140.5,-0.5"/>
<text text-anchor="middle" x="1214.5" y="-7.5" font-family="Helvetica,sans-Serif" font-size="10.00">NetworkServiceLib/server.cpp</text>
</a>
</g>
</g>
<!-- Node2&#45;&gt;Node9 -->
<g id="edge8" class="edge"><title>Node2&#45;&gt;Node9</title>
<path fill="none" stroke="midnightblue" d="M812.701,-55.3705C906.051,-45.0619 1052.56,-28.8827 1140.49,-19.1726"/>
<polygon fill="midnightblue" stroke="midnightblue" points="812.269,-51.8968 802.714,-56.4733 813.037,-58.8545 812.269,-51.8968"/>
</g>
<!-- Node10 -->
<g id="node10" class="node"><title>Node10</title>
<g id="a_node10"><a xlink:href="servicedescriptor_8cpp.html" target="_top" xlink:title="Файл, содержащий реализацию класса ServiceDescriptor. ">
<polygon fill="white" stroke="black" points="1307,-0.5 1307,-19.5 1502,-19.5 1502,-0.5 1307,-0.5"/>
<text text-anchor="middle" x="1404.5" y="-7.5" font-family="Helvetica,sans-Serif" font-size="10.00">NetworkServiceLib/servicedescriptor.cpp</text>
</a>
</g>
</g>
<!-- Node2&#45;&gt;Node10 -->
<g id="edge9" class="edge"><title>Node2&#45;&gt;Node10</title>
<path fill="none" stroke="midnightblue" d="M823.801,-57.4288C937.767,-48.6135 1131.25,-33.5311 1297.5,-20 1300.57,-19.7505 1303.68,-19.4957 1306.83,-19.2375"/>
<polygon fill="midnightblue" stroke="midnightblue" points="823.403,-53.9491 813.703,-58.2097 823.943,-60.9282 823.403,-53.9491"/>
</g>
</g>
</svg>
