<?xml version="1.0" encoding="UTF-8" standalone="no"?>
<!DOCTYPE svg PUBLIC "-//W3C//DTD SVG 1.1//EN"
 "http://www.w3.org/Graphics/SVG/1.1/DTD/svg11.dtd">
<!-- Generated by graphviz version 2.38.0 (20140413.2041)
 -->
<!-- Title: NetworkServiceLib/servicedescriptor.cpp Pages: 1 -->
<!--zoomable 140 -->
<svg id="main" version="1.1" xmlns="http://www.w3.org/2000/svg" xmlns:xlink="http://www.w3.org/1999/xlink" xml:space="preserve" onload="init(evt)">
<style type="text/css"><![CDATA[
.edge:hover path { stroke: red; }
.edge:hover polygon { stroke: red; fill: red; }
]]></style>
<script type="text/javascript"><![CDATA[
var edges = document.getElementsByTagName('g');
if (edges && edges.length) {
  for (var i=0;i<edges.length;i++) {
    if (edges[i].id.substr(0,4)=='edge') {
      edges[i].setAttribute('class','edge');
    }
  }
}
]]></script>
        <defs>
                <circle id="rim" cx="0" cy="0" r="7"/>
                <circle id="rim2" cx="0" cy="0" r="3.5"/>
                <g id="zoomPlus">
                        <use xlink:href="#rim" fill="#404040">
                                <set attributeName="fill" to="#808080" begin="zoomplus.mouseover" end="zoomplus.mouseout"/>
                        </use>
                        <path d="M-4,0h8M0,-4v8" fill="none" stroke="white" stroke-width="1.5" pointer-events="none"/>
                </g>
                <g id="zoomMin">
                        <use xlink:href="#rim" fill="#404040">
                                <set attributeName="fill" to="#808080" begin="zoomminus.mouseover" end="zoomminus.mouseout"/>
                        </use>
                        <path d="M-4,0h8" fill="none" stroke="white" stroke-width="1.5" pointer-events="none"/>
                </g>
                <g id="dirArrow">
                        <path fill="none" stroke="white" stroke-width="1.5" d="M0,-3.0v7 M-2.5,-0.5L0,-3.0L2.5,-0.5"/>
                </g>
               <g id="resetDef">
                       <use xlink:href="#rim2" fill="#404040">
                               <set attributeName="fill" to="#808080" begin="reset.mouseover" end="reset.mouseout"/>
                       </use>
               </g>
        </defs>

<script type="text/javascript">
var viewWidth = 1991;
var viewHeight = 140;
var sectionId = 'dynsection-0';
</script>
<script xlink:href="svgpan.js"/>
<svg id="graph" class="graph">
<g id="viewport">
<title>NetworkServiceLib/servicedescriptor.cpp</title>
<polygon fill="white" stroke="none" points="-4,4 -4,-136 1986.5,-136 1986.5,4 -4,4"/>
<!-- Node1 -->
<g id="node1" class="node"><title>Node1</title>
<polygon fill="#bfbfbf" stroke="black" points="797.5,-112.5 797.5,-131.5 992.5,-131.5 992.5,-112.5 797.5,-112.5"/>
<text text-anchor="middle" x="895" y="-119.5" font-family="Helvetica,sans-Serif" font-size="10.00">NetworkServiceLib/servicedescriptor.cpp</text>
</g>
<!-- Node2 -->
<g id="node2" class="node"><title>Node2</title>
<g id="a_node2"><a xlink:href="networkservice_8h.html" target="_top" xlink:title="Файл, содержаший все необходимые определения и включения для работы библиотеки ">
<polygon fill="white" stroke="black" points="849.5,-56.5 849.5,-75.5 940.5,-75.5 940.5,-56.5 849.5,-56.5"/>
<text text-anchor="middle" x="895" y="-63.5" font-family="Helvetica,sans-Serif" font-size="10.00">networkservice.h</text>
</a>
</g>
</g>
<!-- Node1&#45;&gt;Node2 -->
<g id="edge1" class="edge"><title>Node1&#45;&gt;Node2</title>
<path fill="none" stroke="midnightblue" d="M895,-112.083C895,-105.006 895,-94.8611 895,-85.9865"/>
<polygon fill="midnightblue" stroke="midnightblue" points="898.5,-85.751 895,-75.7511 891.5,-85.7511 898.5,-85.751"/>
</g>
<!-- Node3 -->
<g id="node3" class="node"><title>Node3</title>
<polygon fill="white" stroke="#bfbfbf" points="0,-0.5 0,-19.5 46,-19.5 46,-0.5 0,-0.5"/>
<text text-anchor="middle" x="23" y="-7.5" font-family="Helvetica,sans-Serif" font-size="10.00">chrono</text>
</g>
<!-- Node2&#45;&gt;Node3 -->
<g id="edge2" class="edge"><title>Node2&#45;&gt;Node3</title>
<path fill="none" stroke="midnightblue" d="M849.447,-63.8843C700.629,-60.036 228.905,-46.1788 56.242,-19.7823"/>
<polygon fill="midnightblue" stroke="midnightblue" points="56.7117,-16.313 46.2844,-18.1898 55.6062,-23.2252 56.7117,-16.313"/>
</g>
<!-- Node4 -->
<g id="node4" class="node"><title>Node4</title>
<polygon fill="white" stroke="#bfbfbf" points="64.5,-0.5 64.5,-19.5 105.5,-19.5 105.5,-0.5 64.5,-0.5"/>
<text text-anchor="middle" x="85" y="-7.5" font-family="Helvetica,sans-Serif" font-size="10.00">string</text>
</g>
<!-- Node2&#45;&gt;Node4 -->
<g id="edge3" class="edge"><title>Node2&#45;&gt;Node4</title>
<path fill="none" stroke="midnightblue" d="M849.435,-63.7701C707.966,-59.7364 276.676,-45.7636 115.71,-19.5827"/>
<polygon fill="midnightblue" stroke="midnightblue" points="115.95,-16.0732 105.504,-17.8405 114.773,-22.9734 115.95,-16.0732"/>
</g>
<!-- Node5 -->
<g id="node5" class="node"><title>Node5</title>
<polygon fill="white" stroke="#bfbfbf" points="124,-0.5 124,-19.5 168,-19.5 168,-0.5 124,-0.5"/>
<text text-anchor="middle" x="146" y="-7.5" font-family="Helvetica,sans-Serif" font-size="10.00">vector</text>
</g>
<!-- Node2&#45;&gt;Node5 -->
<g id="edge4" class="edge"><title>Node2&#45;&gt;Node5</title>
<path fill="none" stroke="midnightblue" d="M849.231,-65.5998C736.36,-66.3403 435.767,-63.8176 178.13,-19.8021"/>
<polygon fill="midnightblue" stroke="midnightblue" points="178.664,-16.3426 168.213,-18.0835 177.469,-23.2398 178.664,-16.3426"/>
</g>
<!-- Node6 -->
<g id="node6" class="node"><title>Node6</title>
<polygon fill="white" stroke="#bfbfbf" points="186,-0.5 186,-19.5 226,-19.5 226,-0.5 186,-0.5"/>
<text text-anchor="middle" x="206" y="-7.5" font-family="Helvetica,sans-Serif" font-size="10.00">utility</text>
</g>
<!-- Node2&#45;&gt;Node6 -->
<g id="edge5" class="edge"><title>Node2&#45;&gt;Node6</title>
<path fill="none" stroke="midnightblue" d="M849.331,-65.5207C742.978,-65.9583 470.634,-62.6048 236.208,-19.7749"/>
<polygon fill="midnightblue" stroke="midnightblue" points="236.601,-16.2882 226.13,-17.9048 235.324,-23.1707 236.601,-16.2882"/>
</g>
<!-- Node7 -->
<g id="node7" class="node"><title>Node7</title>
<polygon fill="white" stroke="#bfbfbf" points="244.5,-0.5 244.5,-19.5 317.5,-19.5 317.5,-0.5 244.5,-0.5"/>
<text text-anchor="middle" x="281" y="-7.5" font-family="Helvetica,sans-Serif" font-size="10.00">sys/socket.h</text>
</g>
<!-- Node2&#45;&gt;Node7 -->
<g id="edge6" class="edge"><title>Node2&#45;&gt;Node7</title>
<path fill="none" stroke="midnightblue" d="M849.441,-63.231C754.271,-59.1401 527.3,-47.3201 327.853,-20.1153"/>
<polygon fill="midnightblue" stroke="midnightblue" points="328.161,-16.6247 317.776,-18.7243 327.204,-23.5589 328.161,-16.6247"/>
</g>
<!-- Node8 -->
<g id="node8" class="node"><title>Node8</title>
<polygon fill="white" stroke="#bfbfbf" points="335.5,-0.5 335.5,-19.5 400.5,-19.5 400.5,-0.5 335.5,-0.5"/>
<text text-anchor="middle" x="368" y="-7.5" font-family="Helvetica,sans-Serif" font-size="10.00">netinet/in.h</text>
</g>
<!-- Node2&#45;&gt;Node8 -->
<g id="edge7" class="edge"><title>Node2&#45;&gt;Node8</title>
<path fill="none" stroke="midnightblue" d="M849.311,-62.5724C764.744,-57.6862 577.975,-45.059 410.907,-19.9609"/>
<polygon fill="midnightblue" stroke="midnightblue" points="411.359,-16.4896 400.947,-18.4461 410.307,-23.41 411.359,-16.4896"/>
</g>
<!-- Node9 -->
<g id="node9" class="node"><title>Node9</title>
<polygon fill="white" stroke="#bfbfbf" points="419,-0.5 419,-19.5 481,-19.5 481,-0.5 419,-0.5"/>
<text text-anchor="middle" x="450" y="-7.5" font-family="Helvetica,sans-Serif" font-size="10.00">arpa/inet.h</text>
</g>
<!-- Node2&#45;&gt;Node9 -->
<g id="edge8" class="edge"><title>Node2&#45;&gt;Node9</title>
<path fill="none" stroke="midnightblue" d="M849.219,-61.5746C775.774,-55.7167 626.926,-42.3562 491.517,-20.0929"/>
<polygon fill="midnightblue" stroke="midnightblue" points="491.817,-16.5948 481.378,-18.4048 490.667,-23.4997 491.817,-16.5948"/>
</g>
<!-- Node10 -->
<g id="node10" class="node"><title>Node10</title>
<polygon fill="white" stroke="#bfbfbf" points="499.5,-0.5 499.5,-19.5 558.5,-19.5 558.5,-0.5 499.5,-0.5"/>
<text text-anchor="middle" x="529" y="-7.5" font-family="Helvetica,sans-Serif" font-size="10.00">stdexcept</text>
</g>
<!-- Node2&#45;&gt;Node10 -->
<g id="edge9" class="edge"><title>Node2&#45;&gt;Node10</title>
<path fill="none" stroke="midnightblue" d="M849.299,-60.0274C787.81,-53.0469 674.862,-39.2073 568.676,-19.9737"/>
<polygon fill="midnightblue" stroke="midnightblue" points="569.22,-16.5151 558.753,-18.1566 567.959,-23.4006 569.22,-16.5151"/>
</g>
<!-- Node11 -->
<g id="node11" class="node"><title>Node11</title>
<polygon fill="white" stroke="#bfbfbf" points="577,-0.5 577,-19.5 633,-19.5 633,-0.5 577,-0.5"/>
<text text-anchor="middle" x="605" y="-7.5" font-family="Helvetica,sans-Serif" font-size="10.00">algorithm</text>
</g>
<!-- Node2&#45;&gt;Node11 -->
<g id="edge10" class="edge"><title>Node2&#45;&gt;Node11</title>
<path fill="none" stroke="midnightblue" d="M849.129,-57.7278C800.398,-49.8048 720.892,-36.3158 643.197,-20.1506"/>
<polygon fill="midnightblue" stroke="midnightblue" points="643.746,-16.6896 633.24,-18.062 642.309,-23.5405 643.746,-16.6896"/>
</g>
<!-- Node12 -->
<g id="node12" class="node"><title>Node12</title>
<polygon fill="white" stroke="#bfbfbf" points="651.5,-0.5 651.5,-19.5 702.5,-19.5 702.5,-0.5 651.5,-0.5"/>
<text text-anchor="middle" x="677" y="-7.5" font-family="Helvetica,sans-Serif" font-size="10.00">typeinfo</text>
</g>
<!-- Node2&#45;&gt;Node12 -->
<g id="edge11" class="edge"><title>Node2&#45;&gt;Node12</title>
<path fill="none" stroke="midnightblue" d="M859.89,-56.4832C825.046,-48.0049 769.855,-34.5067 712.566,-20.1223"/>
<polygon fill="midnightblue" stroke="midnightblue" points="713.158,-16.6621 702.606,-17.6177 711.451,-23.4508 713.158,-16.6621"/>
</g>
<!-- Node13 -->
<g id="node13" class="node"><title>Node13</title>
<polygon fill="white" stroke="#bfbfbf" points="721,-0.5 721,-19.5 831,-19.5 831,-0.5 721,-0.5"/>
<text text-anchor="middle" x="776" y="-7.5" font-family="Helvetica,sans-Serif" font-size="10.00">rapidjson/document.h</text>
</g>
<!-- Node2&#45;&gt;Node13 -->
<g id="edge12" class="edge"><title>Node2&#45;&gt;Node13</title>
<path fill="none" stroke="midnightblue" d="M876.144,-56.4435C856.734,-47.6356 826.27,-33.8116 804.035,-23.722"/>
<polygon fill="midnightblue" stroke="midnightblue" points="805.32,-20.4615 794.768,-19.5164 802.428,-26.836 805.32,-20.4615"/>
</g>
<!-- Node14 -->
<g id="node14" class="node"><title>Node14</title>
<polygon fill="white" stroke="#bfbfbf" points="849.5,-0.5 849.5,-19.5 940.5,-19.5 940.5,-0.5 849.5,-0.5"/>
<text text-anchor="middle" x="895" y="-7.5" font-family="Helvetica,sans-Serif" font-size="10.00">rapidjson/writer.h</text>
</g>
<!-- Node2&#45;&gt;Node14 -->
<g id="edge13" class="edge"><title>Node2&#45;&gt;Node14</title>
<path fill="none" stroke="midnightblue" d="M895,-56.083C895,-49.0059 895,-38.8611 895,-29.9865"/>
<polygon fill="midnightblue" stroke="midnightblue" points="898.5,-29.751 895,-19.7511 891.5,-29.7511 898.5,-29.751"/>
</g>
<!-- Node15 -->
<g id="node15" class="node"><title>Node15</title>
<polygon fill="white" stroke="#bfbfbf" points="959,-0.5 959,-19.5 1075,-19.5 1075,-0.5 959,-0.5"/>
<text text-anchor="middle" x="1017" y="-7.5" font-family="Helvetica,sans-Serif" font-size="10.00">rapidjson/stringbuffer.h</text>
</g>
<!-- Node2&#45;&gt;Node15 -->
<g id="edge14" class="edge"><title>Node2&#45;&gt;Node15</title>
<path fill="none" stroke="midnightblue" d="M914.331,-56.4435C934.32,-47.5961 965.743,-33.6875 988.564,-23.5865"/>
<polygon fill="midnightblue" stroke="midnightblue" points="990.032,-26.7645 997.759,-19.5164 987.198,-20.3635 990.032,-26.7645"/>
</g>
<!-- Node16 -->
<g id="node16" class="node"><title>Node16</title>
<polygon fill="white" stroke="#bfbfbf" points="1093,-0.5 1093,-19.5 1143,-19.5 1143,-0.5 1093,-0.5"/>
<text text-anchor="middle" x="1118" y="-7.5" font-family="Helvetica,sans-Serif" font-size="10.00">fstream</text>
</g>
<!-- Node2&#45;&gt;Node16 -->
<g id="edge15" class="edge"><title>Node2&#45;&gt;Node16</title>
<path fill="none" stroke="midnightblue" d="M932.007,-56.4775C968.146,-48.0907 1024.95,-34.7401 1083.05,-20.1942"/>
<polygon fill="midnightblue" stroke="midnightblue" points="1083.92,-23.5851 1092.77,-17.7544 1082.22,-16.796 1083.92,-23.5851"/>
</g>
<!-- Node17 -->
<g id="node17" class="node"><title>Node17</title>
<g id="a_node17"><a xlink:href="helpers_8h.html" target="_top" xlink:title="Файл, содержащий реализацию функций&#45;помощников, не принадлежащих какому&#45;либо объекту ...">
<polygon fill="white" stroke="black" points="1161,-0.5 1161,-19.5 1217,-19.5 1217,-0.5 1161,-0.5"/>
<text text-anchor="middle" x="1189" y="-7.5" font-family="Helvetica,sans-Serif" font-size="10.00">helpers.h</text>
</a>
</g>
</g>
<!-- Node2&#45;&gt;Node17 -->
<g id="edge16" class="edge"><title>Node2&#45;&gt;Node17</title>
<path fill="none" stroke="midnightblue" d="M940.667,-57.9274C990.073,-50.0703 1071.38,-36.5458 1150.61,-20.1845"/>
<polygon fill="midnightblue" stroke="midnightblue" points="1151.69,-23.5357 1160.76,-18.0698 1150.26,-16.6828 1151.69,-23.5357"/>
</g>
<!-- Node18 -->
<g id="node18" class="node"><title>Node18</title>
<g id="a_node18"><a xlink:href="servicedescriptor_8h.html" target="_top" xlink:title="Файл, содержащий объявление абстрактного класса ServiceDescriptor. ">
<polygon fill="white" stroke="black" points="1235.5,-0.5 1235.5,-19.5 1334.5,-19.5 1334.5,-0.5 1235.5,-0.5"/>
<text text-anchor="middle" x="1285" y="-7.5" font-family="Helvetica,sans-Serif" font-size="10.00">servicedescriptor.h</text>
</a>
</g>
</g>
<!-- Node2&#45;&gt;Node18 -->
<g id="edge17" class="edge"><title>Node2&#45;&gt;Node18</title>
<path fill="none" stroke="midnightblue" d="M940.543,-59.0465C1002.46,-50.9005 1116.92,-35.6544 1225.3,-20.08"/>
<polygon fill="midnightblue" stroke="midnightblue" points="1226.04,-23.5107 1235.43,-18.6206 1225.04,-16.5822 1226.04,-23.5107"/>
</g>
<!-- Node19 -->
<g id="node19" class="node"><title>Node19</title>
<g id="a_node19"><a xlink:href="postdescriptor_8h.html" target="_top" xlink:title="Файл, содержащий объявление класса PostDescriptor. ">
<polygon fill="white" stroke="black" points="1353,-0.5 1353,-19.5 1439,-19.5 1439,-0.5 1353,-0.5"/>
<text text-anchor="middle" x="1396" y="-7.5" font-family="Helvetica,sans-Serif" font-size="10.00">postdescriptor.h</text>
</a>
</g>
</g>
<!-- Node2&#45;&gt;Node19 -->
<g id="edge18" class="edge"><title>Node2&#45;&gt;Node19</title>
<path fill="none" stroke="midnightblue" d="M940.697,-61.5062C1020.27,-55.186 1189.62,-40.6884 1342.84,-20.0697"/>
<polygon fill="midnightblue" stroke="midnightblue" points="1343.47,-23.5164 1352.91,-18.7027 1342.53,-16.58 1343.47,-23.5164"/>
</g>
<!-- Node20 -->
<g id="node20" class="node"><title>Node20</title>
<g id="a_node20"><a xlink:href="filedescriptor_8h.html" target="_top" xlink:title="Файл, содержащий объявление класса FileDescriptor. ">
<polygon fill="white" stroke="black" points="1457,-0.5 1457,-19.5 1537,-19.5 1537,-0.5 1457,-0.5"/>
<text text-anchor="middle" x="1497" y="-7.5" font-family="Helvetica,sans-Serif" font-size="10.00">filedescriptor.h</text>
</a>
</g>
</g>
<!-- Node2&#45;&gt;Node20 -->
<g id="edge19" class="edge"><title>Node2&#45;&gt;Node20</title>
<path fill="none" stroke="midnightblue" d="M940.685,-62.8386C1033.91,-58.0916 1252.94,-45.2221 1446.85,-20.0222"/>
<polygon fill="midnightblue" stroke="midnightblue" points="1447.48,-23.4693 1456.94,-18.6965 1446.57,-16.5289 1447.48,-23.4693"/>
</g>
<!-- Node21 -->
<g id="node21" class="node"><title>Node21</title>
<g id="a_node21"><a xlink:href="networkdescriptor_8h.html" target="_top" xlink:title="Файл, содержащий объявление класса NetworkDescriptor. ">
<polygon fill="white" stroke="black" points="1555,-0.5 1555,-19.5 1657,-19.5 1657,-0.5 1555,-0.5"/>
<text text-anchor="middle" x="1606" y="-7.5" font-family="Helvetica,sans-Serif" font-size="10.00">networkdescriptor.h</text>
</a>
</g>
</g>
<!-- Node2&#45;&gt;Node21 -->
<g id="edge20" class="edge"><title>Node2&#45;&gt;Node21</title>
<path fill="none" stroke="midnightblue" d="M940.889,-63.0899C1045.9,-58.4473 1311.96,-45.1448 1544.95,-20.0271"/>
<polygon fill="midnightblue" stroke="midnightblue" points="1545.41,-23.4982 1554.97,-18.9374 1544.65,-16.5393 1545.41,-23.4982"/>
</g>
<!-- Node22 -->
<g id="node22" class="node"><title>Node22</title>
<g id="a_node22"><a xlink:href="myiterator_8h.html" target="_top" xlink:title="Файл, содержащий шаблонных классов MyIterator, MyConstIterator. ">
<polygon fill="white" stroke="black" points="1675,-0.5 1675,-19.5 1743,-19.5 1743,-0.5 1675,-0.5"/>
<text text-anchor="middle" x="1709" y="-7.5" font-family="Helvetica,sans-Serif" font-size="10.00">myiterator.h</text>
</a>
</g>
</g>
<!-- Node2&#45;&gt;Node22 -->
<g id="edge21" class="edge"><title>Node2&#45;&gt;Node22</title>
<path fill="none" stroke="midnightblue" d="M940.847,-64.686C1059.21,-63.3712 1384.79,-56.5573 1664.87,-19.9471"/>
<polygon fill="midnightblue" stroke="midnightblue" points="1665.36,-23.413 1674.81,-18.6322 1664.44,-16.4734 1665.36,-23.413"/>
</g>
<!-- Node23 -->
<g id="node23" class="node"><title>Node23</title>
<g id="a_node23"><a xlink:href="linktable_8h.html" target="_top" xlink:title="Файл, содержащий объявление класса LinkTable. ">
<polygon fill="white" stroke="black" points="1761.5,-0.5 1761.5,-19.5 1822.5,-19.5 1822.5,-0.5 1761.5,-0.5"/>
<text text-anchor="middle" x="1792" y="-7.5" font-family="Helvetica,sans-Serif" font-size="10.00">linktable.h</text>
</a>
</g>
</g>
<!-- Node2&#45;&gt;Node23 -->
<g id="edge22" class="edge"><title>Node2&#45;&gt;Node23</title>
<path fill="none" stroke="midnightblue" d="M940.78,-65.3054C1067.94,-65.5779 1436.24,-62.4587 1750.86,-19.898"/>
<polygon fill="midnightblue" stroke="midnightblue" points="1751.65,-23.3216 1761.09,-18.4975 1750.7,-16.3863 1751.65,-23.3216"/>
</g>
<!-- Node24 -->
<g id="node24" class="node"><title>Node24</title>
<g id="a_node24"><a xlink:href="server_8h.html" target="_top" xlink:title="Файл, содержащий объявление класса Server. ">
<polygon fill="white" stroke="black" points="1841,-0.5 1841,-19.5 1893,-19.5 1893,-0.5 1841,-0.5"/>
<text text-anchor="middle" x="1867" y="-7.5" font-family="Helvetica,sans-Serif" font-size="10.00">server.h</text>
</a>
</g>
</g>
<!-- Node2&#45;&gt;Node24 -->
<g id="edge23" class="edge"><title>Node2&#45;&gt;Node24</title>
<path fill="none" stroke="midnightblue" d="M940.601,-64.0405C1100.74,-60.4826 1637.64,-46.9127 1830.72,-19.8297"/>
<polygon fill="midnightblue" stroke="midnightblue" points="1831.36,-23.2732 1840.75,-18.3629 1830.34,-16.3469 1831.36,-23.2732"/>
</g>
<!-- Node25 -->
<g id="node25" class="node"><title>Node25</title>
<g id="a_node25"><a xlink:href="application_8h.html" target="_top" xlink:title="Файл, содержащий объявление класса Application. ">
<polygon fill="white" stroke="black" points="1911.5,-0.5 1911.5,-19.5 1982.5,-19.5 1982.5,-0.5 1911.5,-0.5"/>
<text text-anchor="middle" x="1947" y="-7.5" font-family="Helvetica,sans-Serif" font-size="10.00">application.h</text>
</a>
</g>
</g>
<!-- Node2&#45;&gt;Node25 -->
<g id="edge24" class="edge"><title>Node2&#45;&gt;Node25</title>
<path fill="none" stroke="midnightblue" d="M940.621,-65.4341C1081.97,-66.2555 1525.18,-64.8951 1901.23,-19.8766"/>
<polygon fill="midnightblue" stroke="midnightblue" points="1901.71,-23.3442 1911.22,-18.6688 1900.87,-16.3948 1901.71,-23.3442"/>
</g>
</g>
</svg>
        <g id="navigator" transform="translate(0 0)" fill="#404254">
                <rect fill="#f2f5e9" fill-opacity="0.5" stroke="#606060" stroke-width=".5" x="0" y="0" width="60" height="60"/>
                <use id="zoomplus" xlink:href="#zoomPlus" x="17" y="9" onmousedown="handleZoom(evt,'in')"/>
                <use id="zoomminus" xlink:href="#zoomMin" x="42" y="9" onmousedown="handleZoom(evt,'out')"/>
                <use id="reset" xlink:href="#resetDef" x="30" y="36" onmousedown="handleReset()"/>
                <g id="arrowUp" xlink:href="#dirArrow" transform="translate(30 24)" onmousedown="handlePan(0,-1)">
                  <use xlink:href="#rim" fill="#404040">
                        <set attributeName="fill" to="#808080" begin="arrowUp.mouseover" end="arrowUp.mouseout"/>
                  </use>
                  <path fill="none" stroke="white" stroke-width="1.5" d="M0,-3.0v7 M-2.5,-0.5L0,-3.0L2.5,-0.5"/>
                </g>
                <g id="arrowRight" xlink:href="#dirArrow" transform="rotate(90) translate(36 -43)" onmousedown="handlePan(1,0)">
                  <use xlink:href="#rim" fill="#404040">
                        <set attributeName="fill" to="#808080" begin="arrowRight.mouseover" end="arrowRight.mouseout"/>
                  </use>
                  <path fill="none" stroke="white" stroke-width="1.5" d="M0,-3.0v7 M-2.5,-0.5L0,-3.0L2.5,-0.5"/>
                </g>
                <g id="arrowDown" xlink:href="#dirArrow" transform="rotate(180) translate(-30 -48)" onmousedown="handlePan(0,1)">
                  <use xlink:href="#rim" fill="#404040">
                        <set attributeName="fill" to="#808080" begin="arrowDown.mouseover" end="arrowDown.mouseout"/>
                  </use>
                  <path fill="none" stroke="white" stroke-width="1.5" d="M0,-3.0v7 M-2.5,-0.5L0,-3.0L2.5,-0.5"/>
                </g>
                <g id="arrowLeft" xlink:href="#dirArrow" transform="rotate(270) translate(-36 17)" onmousedown="handlePan(-1,0)">
                  <use xlink:href="#rim" fill="#404040">
                        <set attributeName="fill" to="#808080" begin="arrowLeft.mouseover" end="arrowLeft.mouseout"/>
                  </use>
                  <path fill="none" stroke="white" stroke-width="1.5" d="M0,-3.0v7 M-2.5,-0.5L0,-3.0L2.5,-0.5"/>
                </g>
        </g>
        <svg viewBox="0 0 15 15" width="100%" height="30px" preserveAspectRatio="xMaxYMin meet">
         <g id="arrow_out" transform="scale(0.3 0.3)">
          <a xlink:href="servicedescriptor_8cpp__incl_org.svg" target="_base">
           <rect id="button" ry="5" rx="5" y="6" x="6" height="38" width="38"
                fill="#f2f5e9" fill-opacity="0.5" stroke="#606060" stroke-width="1.0"/>
           <path id="arrow"
             d="M 11.500037,31.436501 C 11.940474,20.09759 22.043105,11.32322 32.158766,21.979434 L 37.068811,17.246167 C 37.068811,17.246167 37.088388,32 37.088388,32 L 22.160133,31.978069 C 22.160133,31.978069 26.997745,27.140456 26.997745,27.140456 C 18.528582,18.264221 13.291696,25.230495 11.500037,31.436501 z"
             style="fill:#404040;"/>
          </a>
         </g>
        </svg>
</svg>
